<svg xmlns="http://www.w3.org/2000/svg" xmlns:xlink="http://www.w3.org/1999/xlink" width="20.305" height="27.757" viewBox="0 0 20.305 27.757">
  <defs>
    <clipPath id="clip-path">
      <rect id="Rectángulo_774" data-name="Rectángulo 774" width="20.305" height="27.757" transform="translate(0 0)" fill="#fff"/>
    </clipPath>
  </defs>
  <g id="Contact_icon" data-name="Contact icon" transform="translate(0 0)">
    <g id="Grupo_1045" data-name="Grupo 1045" transform="translate(0 0)" clip-path="url(#clip-path)">
      <path id="Trazado_1222" data-name="Trazado 1222" d="M18.987,0H1.359A1.366,1.366,0,0,0,0,1.359V26.4a1.366,1.366,0,0,0,1.359,1.359H18.943A1.366,1.366,0,0,0,20.3,26.4V1.359A1.3,1.3,0,0,0,18.987,0M11.577,26.573a.393.393,0,0,1-.395.395H9.209a.393.393,0,0,1-.395-.395v-.132a.393.393,0,0,1,.395-.395h1.973a.393.393,0,0,1,.395.395ZM19.382,25.3H.965V2.412H19.382Z" transform="translate(0 0)" fill="#fff"/>
      <path id="Trazado_1223" data-name="Trazado 1223" d="M14.972,17.2h-6.1a.866.866,0,0,0-.614.263A.888.888,0,0,0,8,18.077v4.517a.833.833,0,0,0,.833.833h.482v2.236a.166.166,0,0,0,.307.088l1.491-2.324h.877a3.372,3.372,0,0,1,.789-.789,5.957,5.957,0,0,1,3.026-1.184V18.121a.883.883,0,0,0-.833-.921m-4.824,3.727a.614.614,0,1,1,.614-.614.627.627,0,0,1-.614.614m1.754,0a.614.614,0,1,1,.614-.614.6.6,0,0,1-.614.614m1.8,0a.614.614,0,1,1,.614-.614.627.627,0,0,1-.614.614" transform="translate(-4.492 -9.658)" fill="#fff"/>
      <path id="Trazado_1224" data-name="Trazado 1224" d="M26.708,38.3H23.419a.219.219,0,1,0,0,.439h3.289a.207.207,0,0,0,.219-.219c.044-.088-.088-.219-.219-.219" transform="translate(-13.027 -21.505)" fill="#fff"/>
      <path id="Trazado_1225" data-name="Trazado 1225" d="M26.708,35.6H23.419a.219.219,0,0,0,0,.439h3.289a.207.207,0,0,0,.219-.219c.044-.132-.088-.219-.219-.219" transform="translate(-13.027 -19.989)" fill="#fff"/>
      <path id="Trazado_1226" data-name="Trazado 1226" d="M26.708,32.8H23.419a.219.219,0,1,0,0,.439h3.289a.207.207,0,0,0,.219-.219c.044-.088-.088-.219-.219-.219" transform="translate(-13.027 -18.417)" fill="#fff"/>
      <path id="Trazado_1227" data-name="Trazado 1227" d="M26.172,35.191l-.789-1.666a2.9,2.9,0,0,0,.789-1.973c0-1.973-2.149-3.552-4.736-3.552a5.591,5.591,0,0,0-3.42,1.1A3.1,3.1,0,0,0,16.7,31.552v.132c.088,1.929,2.193,3.464,4.736,3.464a4.766,4.766,0,0,0,.789-.044c.263-.044.526-.088.745-.132l2.587.921c.044,0,.088.044.175.044a.461.461,0,0,0,.395-.219.76.76,0,0,0,.044-.526m-3.113-.921h-.219a5.447,5.447,0,0,1-1.447.175c-2.193,0-3.99-1.228-4.078-2.806v-.088a2.3,2.3,0,0,1,.658-1.579,4.689,4.689,0,0,1,3.42-1.316c2.236,0,4.078,1.316,4.078,2.894a2.339,2.339,0,0,1-.745,1.666.421.421,0,0,0-.088.395l.7,1.447Z" transform="translate(-9.377 -15.722)" fill="#fff"/>
    </g>
  </g>
</svg>
