<svg xmlns="http://www.w3.org/2000/svg" xmlns:xlink="http://www.w3.org/1999/xlink" width="897" height="429" viewBox="0 0 897 429">
  <defs>
    <clipPath id="clip-path">
      <rect id="Rectángulo_1008" data-name="Rectángulo 1008" width="897" height="429" transform="translate(0 -0.212)" fill="none"/>
    </clipPath>
    <clipPath id="clip-path-3">
      <rect id="Rectángulo_784" data-name="Rectángulo 784" width="18.178" height="67.046" fill="none"/>
    </clipPath>
    <clipPath id="clip-path-4">
      <rect id="Rectángulo_835" data-name="Rectángulo 835" width="896.864" height="428.522" fill="none"/>
    </clipPath>
    <clipPath id="clip-path-5">
      <rect id="Rectángulo_834" data-name="Rectángulo 834" width="896.864" height="428.521" fill="none"/>
    </clipPath>
    <clipPath id="clip-path-12">
      <rect id="Rectángulo_854" data-name="Rectángulo 854" width="61.771" height="31.454" fill="none"/>
    </clipPath>
    <clipPath id="clip-path-14">
      <rect id="Rectángulo_856" data-name="Rectángulo 856" width="61.771" height="30.957" fill="none"/>
    </clipPath>
    <clipPath id="clip-path-16">
      <rect id="Rectángulo_1000" data-name="Rectángulo 1000" width="60.389" height="10.329" fill="none"/>
    </clipPath>
    <clipPath id="clip-path-18">
      <rect id="Rectángulo_1006" data-name="Rectángulo 1006" width="18.179" height="67.046" fill="none"/>
    </clipPath>
    <clipPath id="clip-path-19">
      <rect id="Rectángulo_1005" data-name="Rectángulo 1005" width="18.179" height="67.045" fill="none"/>
    </clipPath>
  </defs>
  <g id="Factory" transform="translate(0.062 0.237)">
    <g id="Grupo_1101" data-name="Grupo 1101" transform="translate(-0.062 -0.025)" clip-path="url(#clip-path)">
      <rect id="Rectángulo_781" data-name="Rectángulo 781" width="18.178" height="421.12" transform="translate(598.075 0.036)" fill="#828282"/>
      <rect id="Rectángulo_782" data-name="Rectángulo 782" width="28.536" height="6.433" transform="translate(592.896 417.94)" fill="#4a4046"/>
      <g id="Grupo_1100" data-name="Grupo 1100">
        <g id="Grupo_1099" data-name="Grupo 1099" clip-path="url(#clip-path)">
          <g id="Grupo_1058" data-name="Grupo 1058" transform="translate(598.075 350.895)" opacity="0.38">
            <g id="Grupo_1057" data-name="Grupo 1057">
              <g id="Grupo_1056" data-name="Grupo 1056" clip-path="url(#clip-path-3)">
                <rect id="Rectángulo_783" data-name="Rectángulo 783" width="18.178" height="67.045" fill="#4a4046"/>
              </g>
            </g>
          </g>
          <path id="Trazado_1234" data-name="Trazado 1234" d="M655.341,222.23a3.208,3.208,0,1,0,3.209,3.209,3.208,3.208,0,0,0-3.209-3.209" transform="translate(-48.176 -16.403)" fill="#4a4046"/>
          <path id="Trazado_1235" data-name="Trazado 1235" d="M655.341,240.321a3.207,3.207,0,1,0,3.209,3.208,3.208,3.208,0,0,0-3.209-3.208" transform="translate(-48.176 -17.741)" fill="#4a4046"/>
          <path id="Trazado_1236" data-name="Trazado 1236" d="M655.341,13.636a3.207,3.207,0,1,0,3.209,3.208,3.208,3.208,0,0,0-3.209-3.208" transform="translate(-48.176 -0.975)" fill="#4a4046"/>
          <path id="Trazado_1237" data-name="Trazado 1237" d="M655.341,47.411a3.208,3.208,0,1,0,3.209,3.209,3.209,3.209,0,0,0-3.209-3.209" transform="translate(-48.176 -3.473)" fill="#4a4046"/>
          <path id="Trazado_1238" data-name="Trazado 1238" d="M886.858,204.73l-3.41-3.409,22.836-22.835c17.856-17.857,10.584-41.113-4.546-56.242-6.93-6.93-20.371-16.729-32.556-4.546l-3.41-3.409c10.9-10.9,25.626-9.2,39.375,4.545,20.219,20.219,22.045,45.561,4.545,63.061Z" transform="translate(-63.978 -7.893)" fill="#993c40"/>
          <path id="Trazado_1239" data-name="Trazado 1239" d="M880.547,198.776l-3.41-3.409,22.836-22.835c17.856-17.859,10.584-41.114-4.545-56.244-6.93-6.93-20.373-16.73-32.557-4.544l-3.41-3.409c10.9-10.9,25.623-9.2,39.375,4.545,20.219,20.219,22.045,45.56,4.545,63.06Z" transform="translate(-63.512 -7.452)" fill="#7d3135"/>
          <rect id="Rectángulo_785" data-name="Rectángulo 785" width="12.4" height="87.83" transform="matrix(0.97, -0.242, 0.242, 0.97, 648.909, 150.772)" fill="#363232"/>
          <rect id="Rectángulo_786" data-name="Rectángulo 786" width="41.404" height="24.514" transform="matrix(0.97, -0.242, 0.242, 0.97, 653.634, 229.754)" fill="#4d5052"/>
          <rect id="Rectángulo_787" data-name="Rectángulo 787" width="10.747" height="24.317" transform="translate(676.33 224.102) rotate(-13.986)" fill="#e2e2e2"/>
          <rect id="Rectángulo_788" data-name="Rectángulo 788" width="29.107" height="9.926" transform="translate(665.476 251.864) rotate(-13.985)" fill="#4d5052"/>
          <rect id="Rectángulo_789" data-name="Rectángulo 789" width="7.854" height="9.925" transform="matrix(0.97, -0.242, 0.242, 0.97, 681.204, 247.948)" fill="#e2e2e2"/>
          <rect id="Rectángulo_790" data-name="Rectángulo 790" width="8.68" height="13.28" transform="translate(677.586 259.077) rotate(-13.983)" fill="#363232"/>
          <path id="Trazado_1240" data-name="Trazado 1240" d="M765.091,324.524a10.048,10.048,0,0,1-7.326,12.184l-9.773-39.244,9.754-2.429Z" transform="translate(-55.267 -21.788)" fill="#e2e2e2"/>
          <path id="Trazado_1241" data-name="Trazado 1241" d="M743.7,340.211a10.049,10.049,0,0,1-12.184-7.326l-7.343-29.49,9.754-2.43Z" transform="translate(-53.505 -22.227)" fill="#e2e2e2"/>
          <path id="Trazado_1242" data-name="Trazado 1242" d="M730.6,291.681l14.629-3.643a8.856,8.856,0,0,1,10.733,6.454l-31.813,7.921a8.854,8.854,0,0,1,6.452-10.732" transform="translate(-53.484 -21.251)" fill="#363232"/>
          <path id="Trazado_1243" data-name="Trazado 1243" d="M736.63,299.423l-2.441-9.8a3.358,3.358,0,0,1,2.448-4.07l1.906-.474a3.357,3.357,0,0,1,4.07,2.447l2.441,9.8a3.358,3.358,0,0,1-2.447,4.07l-1.906.474a3.357,3.357,0,0,1-4.07-2.447" transform="translate(-54.238 -21.045)" fill="#e2e2e2"/>
          <path id="Trazado_1244" data-name="Trazado 1244" d="M687.985,148.434l29.515-7.35,4.451,17.871-29.515,7.35a6.787,6.787,0,0,1-8.225-4.945l-1.17-4.7a6.785,6.785,0,0,1,4.945-8.224" transform="translate(-50.448 -10.401)" fill="#4d5052"/>
          <rect id="Rectángulo_791" data-name="Rectángulo 791" width="20.461" height="5.804" transform="translate(641.076 140.697) rotate(-13.983)" fill="#e2e2e2"/>
          <rect id="Rectángulo_792" data-name="Rectángulo 792" width="63.369" height="43.036" transform="matrix(0.97, -0.242, 0.242, 0.97, 772.511, 92.821)" fill="#828282"/>
          <rect id="Rectángulo_793" data-name="Rectángulo 793" width="63.369" height="14.647" transform="matrix(0.97, -0.242, 0.242, 0.97, 773.601, 97.199)" fill="#e2e2e2"/>
          <rect id="Rectángulo_794" data-name="Rectángulo 794" width="8.45" height="32.655" transform="matrix(0.97, -0.242, 0.242, 0.97, 835.427, 83.23)" fill="#363232"/>
          <rect id="Rectángulo_795" data-name="Rectángulo 795" width="22.793" height="13.413" transform="translate(848.333 79.558) rotate(-13.984)" fill="#666"/>
          <rect id="Rectángulo_796" data-name="Rectángulo 796" width="22.793" height="13.413" transform="translate(852.797 97.489) rotate(-13.984)" fill="#666"/>
          <rect id="Rectángulo_797" data-name="Rectángulo 797" width="4.96" height="8.68" transform="translate(844.092 83.053) rotate(-13.979)" fill="#363232"/>
          <rect id="Rectángulo_798" data-name="Rectángulo 798" width="4.961" height="8.68" transform="translate(848.557 100.983) rotate(-13.979)" fill="#363232"/>
          <rect id="Rectángulo_799" data-name="Rectángulo 799" width="2.79" height="36.788" transform="matrix(0.97, -0.242, 0.242, 0.97, 837.437, 80.848)" fill="#666"/>
          <rect id="Rectángulo_800" data-name="Rectángulo 800" width="8.509" height="30.97" transform="translate(765.465 99.744) rotate(-13.988)" fill="#363232"/>
          <rect id="Rectángulo_801" data-name="Rectángulo 801" width="61.309" height="33.076" transform="translate(705.72 113.538) rotate(-13.984)" fill="#828282"/>
          <rect id="Rectángulo_802" data-name="Rectángulo 802" width="37.463" height="25.962" transform="translate(670.242 126.103) rotate(-13.984)" fill="#828282"/>
          <rect id="Rectángulo_803" data-name="Rectángulo 803" width="22.793" height="3.659" transform="translate(848.904 81.854) rotate(-13.984)" fill="#e2e2e2"/>
          <rect id="Rectángulo_804" data-name="Rectángulo 804" width="61.16" height="9.3" transform="matrix(0.97, -0.242, 0.242, 0.97, 706.804, 117.281)" fill="#e2e2e2"/>
          <rect id="Rectángulo_805" data-name="Rectángulo 805" width="22.793" height="3.659" transform="translate(853.475 100.209) rotate(-13.984)" fill="#e2e2e2"/>
          <rect id="Rectángulo_806" data-name="Rectángulo 806" width="2.79" height="4.96" transform="matrix(0.97, -0.242, 0.242, 0.97, 838.993, 87.099)" fill="#e2e2e2"/>
          <rect id="Rectángulo_807" data-name="Rectángulo 807" width="2.618" height="29.555" transform="matrix(0.97, -0.242, 0.242, 0.97, 703.596, 115.843)" fill="#363232"/>
          <rect id="Rectángulo_808" data-name="Rectángulo 808" width="1.395" height="13.412" transform="matrix(0.97, -0.242, 0.242, 0.97, 855.974, 96.698)" fill="#363232"/>
          <rect id="Rectángulo_809" data-name="Rectángulo 809" width="1.395" height="13.413" transform="matrix(0.97, -0.242, 0.242, 0.97, 851.508, 78.767)" fill="#363232"/>
          <rect id="Rectángulo_810" data-name="Rectángulo 810" width="2.342" height="43.036" transform="translate(776.288 91.881) rotate(-13.981)" fill="#363232"/>
          <rect id="Rectángulo_811" data-name="Rectángulo 811" width="34.845" height="8.228" transform="matrix(0.97, -0.242, 0.242, 0.97, 670.966, 129.014)" fill="#e2e2e2"/>
          <rect id="Rectángulo_812" data-name="Rectángulo 812" width="1.654" height="25.962" transform="matrix(0.97, -0.241, 0.241, 0.97, 678.618, 124.017)" fill="#363232"/>
          <rect id="Rectángulo_813" data-name="Rectángulo 813" width="1.637" height="18.584" transform="matrix(0.97, -0.242, 0.242, 0.97, 639.412, 137.4)" fill="#363232"/>
          <rect id="Rectángulo_814" data-name="Rectángulo 814" width="1.653" height="26.056" transform="translate(682.803 122.872) rotate(-13.974)" fill="#363232"/>
          <rect id="Rectángulo_815" data-name="Rectángulo 815" width="1.653" height="33.097" transform="translate(716.753 110.79) rotate(-13.974)" fill="#363232"/>
          <rect id="Rectángulo_816" data-name="Rectángulo 816" width="1.653" height="33.098" transform="matrix(0.97, -0.242, 0.242, 0.97, 721.56, 109.593)" fill="#363232"/>
          <rect id="Rectángulo_817" data-name="Rectángulo 817" width="11.367" height="18.416" transform="translate(660.099 132.414) rotate(-13.983)" fill="#363232"/>
          <rect id="Rectángulo_818" data-name="Rectángulo 818" width="21.081" height="50.166" transform="translate(648.711 167.934) rotate(-13.984)" fill="#4d5052"/>
          <rect id="Rectángulo_819" data-name="Rectángulo 819" width="6.2" height="50.166" transform="translate(660.543 164.988) rotate(-13.984)" fill="#e2e2e2"/>
          <path id="Trazado_1245" data-name="Trazado 1245" d="M765.394,325.739a10.048,10.048,0,0,1-7.326,12.184l-5.984-24.031,9.754-2.43Z" transform="translate(-55.569 -23.003)" fill="#363232"/>
          <path id="Trazado_1246" data-name="Trazado 1246" d="M744,341.427a10.049,10.049,0,0,1-12.184-7.326l-3.556-14.277,9.756-2.429Z" transform="translate(-53.807 -23.442)" fill="#363232"/>
          <rect id="Rectángulo_820" data-name="Rectángulo 820" width="41.405" height="1.757" transform="matrix(0.97, -0.242, 0.242, 0.97, 658.125, 247.787)" fill="#363232"/>
          <rect id="Rectángulo_821" data-name="Rectángulo 821" width="21.131" height="1.653" transform="translate(650.416 174.99) rotate(-13.983)" fill="#363232"/>
          <rect id="Rectángulo_822" data-name="Rectángulo 822" width="21.131" height="1.653" transform="translate(653.338 186.723) rotate(-13.983)" fill="#363232"/>
          <rect id="Rectángulo_823" data-name="Rectángulo 823" width="15.084" height="92.782" transform="translate(320.493 26.761) rotate(-14.342)" fill="#363232"/>
          <rect id="Rectángulo_824" data-name="Rectángulo 824" width="50.363" height="29.818" transform="translate(323.362 109.182) rotate(-14.344)" fill="#828282"/>
          <rect id="Rectángulo_825" data-name="Rectángulo 825" width="13.072" height="29.578" transform="translate(331.928 106.992) rotate(-14.342)" fill="#d3d3d3"/>
          <rect id="Rectángulo_826" data-name="Rectángulo 826" width="35.405" height="12.073" transform="translate(337.936 135.985) rotate(-14.344)" fill="#9b9b9b"/>
          <rect id="Rectángulo_827" data-name="Rectángulo 827" width="9.554" height="12.073" transform="translate(343.883 134.465) rotate(-14.345)" fill="#d3d3d3"/>
          <rect id="Rectángulo_828" data-name="Rectángulo 828" width="10.558" height="16.154" transform="translate(353.207 144.542) rotate(-14.346)" fill="#363232"/>
          <path id="Trazado_1247" data-name="Trazado 1247" d="M381.606,220.7a12.222,12.222,0,0,0,14.877,8.816L384.3,181.853l-11.848,3.028Z" transform="translate(-27.489 -13.417)" fill="#828282"/>
          <path id="Trazado_1248" data-name="Trazado 1248" d="M413.567,225.144a12.222,12.222,0,0,0,8.818-14.876l-9.159-35.815-11.846,3.03Z" transform="translate(-29.629 -12.869)" fill="#828282"/>
          <path id="Trazado_1249" data-name="Trazado 1249" d="M397.952,166.033l-17.765,4.543a10.77,10.77,0,0,0-7.767,13.1l38.635-9.881a10.772,10.772,0,0,0-13.1-7.767" transform="translate(-27.462 -12.222)" fill="#363232"/>
          <path id="Trazado_1250" data-name="Trazado 1250" d="M387.574,179.957l-3.043-11.9a4.085,4.085,0,0,1,1.508-4.28,4.074,4.074,0,0,1,1.437-.688l2.315-.592a4.077,4.077,0,0,1,.791-.122,4.124,4.124,0,0,1,.8.036,4.092,4.092,0,0,1,3.378,3.031l3.043,11.9a4.16,4.16,0,0,1,.121.792,4.1,4.1,0,0,1-.227,1.577,4.067,4.067,0,0,1-1.4,1.911,4.094,4.094,0,0,1-1.437.689l-2.315.592a4.08,4.08,0,0,1-2.369-.1,4.077,4.077,0,0,1-1.371-.813,4.078,4.078,0,0,1-1.229-2.028" transform="translate(-28.374 -11.975)" fill="#828282"/>
          <rect id="Rectángulo_829" data-name="Rectángulo 829" width="25.643" height="46.969" transform="translate(320.381 47.639) rotate(-14.346)" fill="#828282"/>
          <rect id="Rectángulo_830" data-name="Rectángulo 830" width="7.542" height="46.969" transform="matrix(0.969, -0.248, 0.248, 0.969, 323.546, 46.829)" fill="#d3d3d3"/>
          <path id="Trazado_1251" data-name="Trazado 1251" d="M381.983,222.172a12.222,12.222,0,0,0,14.877,8.816L389.4,201.8l-11.847,3.029Z" transform="translate(-27.867 -14.893)" fill="#363232"/>
          <path id="Trazado_1252" data-name="Trazado 1252" d="M413.945,226.62a12.222,12.222,0,0,0,8.818-14.876l-4.435-17.337-11.846,3.028Z" transform="translate(-30.007 -14.345)" fill="#363232"/>
          <rect id="Rectángulo_831" data-name="Rectángulo 831" width="50.363" height="2.137" transform="translate(328.963 131.082) rotate(-14.344)" fill="#363232"/>
          <rect id="Rectángulo_832" data-name="Rectángulo 832" width="25.703" height="2.011" transform="matrix(0.969, -0.248, 0.248, 0.969, 322.569, 56.193)" fill="#363232"/>
          <rect id="Rectángulo_833" data-name="Rectángulo 833" width="25.703" height="2.011" transform="matrix(0.969, -0.248, 0.248, 0.969, 328.568, 79.653)" fill="#363232"/>
          <path id="Trazado_1253" data-name="Trazado 1253" d="M286.747,197v3.7h-4.036V198.95a17.755,17.755,0,0,0-6.465-13.707,13.448,13.448,0,0,1,4.006-.607h.821A13.533,13.533,0,0,1,294.535,197Zm-8.131,5.871h-9.724V202.8h-1.144v.066h-1.017v-4.711a13.5,13.5,0,0,1,5.431-10.808,13.686,13.686,0,0,1,6.453,11.6Zm-16.323,0H250.41V198.95A13.71,13.71,0,0,1,264.1,185.257h.819a13.678,13.678,0,0,1,2.594.255,17.9,17.9,0,0,0-5.223,12.645Zm-100.32-9.323H159.8v1.932h2.175v1.748H159.8v15.421H149.473a14.544,14.544,0,0,1-10.629-4.625,14.332,14.332,0,0,1-.2-2.322v-.563a14.44,14.44,0,0,1,14.424-14.424H159.8v1.806h2.175Zm-2.175,26.58h-6.735a14.378,14.378,0,0,1-10.715-4.8,18.607,18.607,0,0,0,7.125,1.418H159.8Zm-24.921-22.076v-.561a14.614,14.614,0,0,1,14.6-14.6H159.8v3.383h-6.735a18.887,18.887,0,0,0-18.074,13.5,14.738,14.738,0,0,1-.112-1.726m176.711,83.211h-1.966a6.481,6.481,0,0,0-6.481-6.482h-2.189v-8.132h7.324v-7.12h4.5V245.775h-9.265V225.66h3.53V197h-8.069a17.966,17.966,0,0,0-17.9-16.8h-.821a17.826,17.826,0,0,0-8.7,2.26,17.687,17.687,0,0,0-6.63-1.295H264.1a17.807,17.807,0,0,0-17.788,17.787v3.917H223.3V200.7h-5.891v-3.472H192.749v-1.748h7.443v-1.932h-7.443v-1.026h7.443V174.475H159.8V178.8H149.473a18.711,18.711,0,0,0-18.69,18.691v.561a18.571,18.571,0,0,0,3.764,11.2,18.887,18.887,0,0,0,18.516,15.311H159.8v2.456h17.146V234.9h-.719v13.307h-.079v1.145h.079v21.827h-2.31V273.2h-.789v38.411h-4.95a19.934,19.934,0,0,0-19.934,19.933h-3.316v18.394h-.317v4.233h6.375v4.682h-6.217v6.214h3.475v4.514h-3.475v13.554h-.845a6.275,6.275,0,0,0-6.275,6.275v8.607h68.935v-8.607a6.275,6.275,0,0,0-6.275-6.275h-1.969V369.58h-3.476v-4.514h3.476v-6.214h-5.1V354.17h5.1v-4.228h4.3V323.815a16.228,16.228,0,0,0-3.149-9.61v-41H198.7v-2.021h-2.233V234.9h-.783v-7.882h21.725v-4.881H223.3v-2.278h57.56v2.278h5.891v3.523h4.987v20.115h-9.263v13.749h4.5v7.12H294.6v6.771a2.731,2.731,0,0,0-.152.865v.5h-2.34a6.482,6.482,0,0,0-6.481,6.482H283.66a3.42,3.42,0,0,0-3.421,3.421v35.995a7.355,7.355,0,0,0,7.358,7.358v-39.9h6.449v39.9H301.2v-39.9h6.449v39.9a7.354,7.354,0,0,0,7.358-7.358V284.68a3.42,3.42,0,0,0-3.42-3.421" transform="translate(-9.614 -12.871)" fill="#4d5052"/>
          <g id="Grupo_1063" data-name="Grupo 1063" transform="translate(0.059 0.034)" opacity="0.302" style="mix-blend-mode: normal;isolation: isolate">
            <g id="Grupo_1062" data-name="Grupo 1062">
              <g id="Grupo_1061" data-name="Grupo 1061" clip-path="url(#clip-path-4)">
                <g id="Grupo_1060" data-name="Grupo 1060" transform="translate(0 0.001)">
                  <g id="Grupo_1059" data-name="Grupo 1059" clip-path="url(#clip-path-5)">
                    <path id="Trazado_1254" data-name="Trazado 1254" d="M787.542,437.208v3.229a6.336,6.336,0,0,1-3.91,5.852,6.352,6.352,0,0,1-2.424.482H274.374a6.352,6.352,0,0,1-2.424-.482,6.379,6.379,0,0,1-1.1-.585,6.362,6.362,0,0,1-1.747-1.747,6.337,6.337,0,0,1-.945-2.284,6.286,6.286,0,0,1-.121-1.235v-3.229a6.336,6.336,0,0,1,.482-2.424,6.332,6.332,0,0,1,3.428-3.427,6.351,6.351,0,0,1,2.423-.482H781.207a6.346,6.346,0,0,1,4.479,1.855,6.331,6.331,0,0,1,1.855,4.479" transform="translate(-19.826 -31.871)" fill="#231f20"/>
                  </g>
                </g>
              </g>
            </g>
          </g>
          <path id="Trazado_1255" data-name="Trazado 1255" d="M315.794,325.717l320.156,9.351,26.5.779,9.535.276s-18.26-14.517-47.167-29.428c-8.707-4.5-18.383-9.025-28.82-13.2a287.059,287.059,0,0,0-31.477-10.6,222.012,222.012,0,0,0-57.972-8.148q-12.764,0-24.2.846c-65.629,4.7-100.326,27.931-126.563,40.65-11.236,5.436-39.994,9.468-39.994,9.468" transform="translate(-23.299 -20.288)" fill="#523a35"/>
          <path id="Trazado_1256" data-name="Trazado 1256" d="M618.38,294.71l35.208,36.639,4.742,4.933,26.5.779-11-1.665L647.2,307.91c-8.707-4.5-18.383-9.027-28.82-13.2" transform="translate(-45.68 -21.764)" fill="#6b504a"/>
          <path id="Trazado_1257" data-name="Trazado 1257" d="M495.587,282.027l82.22.589a221.973,221.973,0,0,0-57.971-8.148c-8.509,0-16.786.317-24.42.87Z" transform="translate(-36.585 -20.267)" fill="#f8f8f8"/>
          <path id="Trazado_1258" data-name="Trazado 1258" d="M294.517,322.48l89.277,5.73,266.4,5.651s-65.565-58.812-153.807-58.812c-81.643,0-132.364,25.932-161.658,39.331-11.233,5.139-40.21,8.1-40.21,8.1" transform="translate(-21.725 -20.31)" fill="#f8f8f8"/>
          <path id="Trazado_1259" data-name="Trazado 1259" d="M380.488,308.614c15.511,16.989,46.148,25.9,81.092,30.108,12.056,1.455,24.622,2.344,37.255,2.816,8.713.325,17.458.448,26.09.411,4.074-.013,8.13-.067,12.137-.141,18.861-.38,36.822-1.418,52.284-2.614,3.964-.307,7.761-.625,11.362-.945,23.415-2.079,38.792-4.263,38.792-4.263s-35.061-29.979-84.89-43.7c-5.117-1.41-10.387-2.645-15.794-3.663a178.451,178.451,0,0,0-19.506-2.577,301.515,301.515,0,0,0-38.232-.479c-3.933.191-7.769.467-11.5.8q-1.711.157-3.393.332c-6.835.693-13.315,1.6-19.425,2.656q-5.5.949-10.6,2.044c-6.423,1.368-12.345,2.872-17.738,4.417-24.322,6.97-37.938,14.794-37.938,14.794" transform="translate(-28.084 -20.911)" fill="#523a35"/>
          <path id="Trazado_1260" data-name="Trazado 1260" d="M440.612,289.525l41.276,42.95,8.032,8.357h34.55l-5.327-5.54-48.509-50.467c-6.835.693-13.314,1.6-19.425,2.656q-5.5.95-10.6,2.044" transform="translate(-32.531 -21.033)" fill="#6b504a"/>
          <path id="Trazado_1261" data-name="Trazado 1261" d="M489.113,283.567,545.1,341.808l1.516,1.578h67.07l-4.94-5.137-46.1-47.963c-5.117-1.41-10.387-2.645-15.794-3.663a178.223,178.223,0,0,0-19.506-2.577,301.34,301.34,0,0,0-38.232-.479" transform="translate(-36.119 -20.911)" fill="#6b504a"/>
          <path id="Trazado_1262" data-name="Trazado 1262" d="M268.04,376.367V391.72a25.534,25.534,0,0,0,25.536,25.536H777.522V404.9c0-3.737,6.75-11.7,6.75-11.7V379.877c0-3.8-5.755-34.735-121.9-45.221-3.5,2.277-9.487,2.3-14.629,2.277-93.534-.32-357.1-10.664-357.1-10.664a8.891,8.891,0,0,0-8.9,8.9l-.1.9-4.19,36.814h-5.928a3.487,3.487,0,0,0-3.485,3.485" transform="translate(-19.767 -24.099)" fill="#f8f8f8"/>
          <path id="Trazado_1263" data-name="Trazado 1263" d="M678.072,337.6s76.146,6.934,94.369,17.34,19.345,30.317,19.345,30.317l22.814-.767v-3.945c0-3.8-5.755-34.736-121.9-45.222-3.5,2.277-9.486,2.3-14.628,2.277" transform="translate(-50.095 -24.769)" fill="#feffff"/>
          <path id="Trazado_1264" data-name="Trazado 1264" d="M644.239,337.034v3.445H615.35v-11.3a6.111,6.111,0,0,1,.468-2.348,6.017,6.017,0,0,1,.567-1.061,6.138,6.138,0,0,1,.764-.931,6.022,6.022,0,0,1,.93-.763,6.133,6.133,0,0,1,3.411-1.034h8.76a13.988,13.988,0,0,1,13.99,13.991" transform="translate(-45.456 -23.86)" fill="#f8f8f8"/>
          <path id="Trazado_1265" data-name="Trazado 1265" d="M268.04,376.8v15.354a25.535,25.535,0,0,0,25.536,25.535H777.522l.175-24.028,6.575-.029v-9.376h-14.26a27.069,27.069,0,0,1-21.14-10.13,7.9,7.9,0,0,0-13.238,1.348l-7.991,15.887-60.23-4.081-5.364-13.585a29.716,29.716,0,0,0-27.264-18.8L410.25,352.078C366.735,319.571,281.643,336.5,281.643,336.5l-4.19,36.815h-5.928a.682.682,0,0,0-.116.007,3.477,3.477,0,0,0-3.369,3.477" transform="translate(-19.767 -24.529)" fill="#f0edeb"/>
          <path id="Trazado_1266" data-name="Trazado 1266" d="M624.878,356.154h-.017l-209.639-2.2-.4-.3c-16.732-12.5-41.6-19.109-73.918-19.645a1.535,1.535,0,0,1,.026-3.069h.026c32.718.543,58.047,7.256,75.3,19.955l208.64,2.193a1.534,1.534,0,0,1-.016,3.068" transform="translate(-25.045 -24.444)" fill="#feffff"/>
          <path id="Trazado_1267" data-name="Trazado 1267" d="M653.016,398.644V401a6.019,6.019,0,0,1-.117,1.182,5.916,5.916,0,0,1-.344,1.135,6.049,6.049,0,0,1-2.23,2.717,6.037,6.037,0,0,1-2.182.9,6.106,6.106,0,0,1-1.182.116H424.476a6.036,6.036,0,0,1-3.363-1.02,6.041,6.041,0,0,1-2.23-2.717,5.927,5.927,0,0,1-.344-1.135,6.019,6.019,0,0,1-.117-1.182v-2.353a6.017,6.017,0,0,1,.117-1.181,6.056,6.056,0,0,1,1.657-3.1,6.061,6.061,0,0,1,4.281-1.773H646.962a6.034,6.034,0,0,1,1.182.117,6.053,6.053,0,0,1,4.756,4.757,6.017,6.017,0,0,1,.117,1.181" transform="translate(-30.89 -29.004)" fill="#e8e5e3"/>
          <path id="Trazado_1268" data-name="Trazado 1268" d="M690.424,420.3v-17a39.116,39.116,0,1,1,78.231,0v17Z" transform="translate(-51.009 -26.903)" fill="#523a35"/>
          <path id="Trazado_1269" data-name="Trazado 1269" d="M721.392,367.7q1.761-.408,3.555-.645t3.6-.291q1.809-.058,3.612.06t3.589.417q1.784.3,3.531.765t3.438,1.108q1.692.64,3.314,1.44t3.156,1.758q1.535.957,2.97,2.059t2.753,2.339q1.318,1.238,2.51,2.6t2.244,2.832q1.051,1.47,1.955,3.037t1.648,3.215q.746,1.647,1.326,3.36t.989,3.476q.41,1.761.644,3.554t.293,3.6q.058,1.809-.061,3.612t-.416,3.588q-.3,1.785-.766,3.531t-1.108,3.439q-.639,1.692-1.44,3.313t-1.757,3.157q-.957,1.535-2.059,2.969t-2.339,2.753q-1.238,1.321-2.6,2.511t-2.832,2.243q-1.471,1.054-3.037,1.956t-3.215,1.648q-1.647.745-3.361,1.325t-3.475.99q-1.761.408-3.555.644t-3.6.293q-1.809.058-3.612-.062t-3.589-.416q-1.783-.294-3.53-.765T716.73,438q-1.692-.639-3.313-1.44t-3.157-1.757q-1.535-.957-2.969-2.058t-2.753-2.34q-1.32-1.238-2.51-2.6t-2.244-2.833q-1.053-1.471-1.956-3.038t-1.648-3.214q-.746-1.649-1.325-3.362t-.99-3.474q-.408-1.761-.643-3.555t-.293-3.6q-.058-1.807.062-3.611t.416-3.59q.3-1.782.765-3.53t1.108-3.439q.639-1.693,1.44-3.313t1.758-3.156q.956-1.536,2.058-2.971t2.34-2.752q1.236-1.318,2.6-2.51t2.832-2.244q1.471-1.052,3.038-1.956t3.214-1.648q1.649-.745,3.362-1.326t3.474-.989" transform="translate(-51.192 -27.092)" fill="#523a35"/>
          <path id="Trazado_1270" data-name="Trazado 1270" d="M696.165,402.8h-.05a.922.922,0,0,1-.87-.97A34.7,34.7,0,0,1,728,369.08a.907.907,0,0,1,.97.869.918.918,0,0,1-.869.969,32.855,32.855,0,0,0-31.017,31.017.921.921,0,0,1-.918.87" transform="translate(-51.365 -27.265)" fill="#a38181"/>
          <path id="Trazado_1271" data-name="Trazado 1271" d="M734.578,441.226a.92.92,0,0,1-.048-1.839,32.853,32.853,0,0,0,31.024-31.026.9.9,0,0,1,.969-.869.919.919,0,0,1,.869.97,34.689,34.689,0,0,1-32.763,32.762.456.456,0,0,1-.05,0" transform="translate(-54.206 -30.106)" fill="#a38181"/>
          <path id="Trazado_1272" data-name="Trazado 1272" d="M761.082,403.961v.064a30.886,30.886,0,1,1-61.771,0v-.064a30.886,30.886,0,0,1,61.771,0" transform="translate(-51.666 -27.566)" fill="#c8b2b2"/>
          <path id="Trazado_1273" data-name="Trazado 1273" d="M702.381,404.188v.067A28.031,28.031,0,0,0,730.4,432.3h.031a28.022,28.022,0,0,0,28.041-28.01v-.038a28.1,28.1,0,0,0-1.344-8.607,28.011,28.011,0,0,0-26.617-19.433h-.081a28.024,28.024,0,0,0-28.047,27.974" transform="translate(-51.893 -27.793)" fill="#b6a2a2"/>
          <path id="Trazado_1274" data-name="Trazado 1274" d="M724.914,421.179l3.649-11.2a6.235,6.235,0,0,0,1.859.3l-.012,11.78L730.4,432.3a28.025,28.025,0,0,1-8.659-1.374Zm9.032-12.05,6.915,9.535,6.025,8.3a27.855,27.855,0,0,1-7.822,3.982l-3.154-9.762-3.626-11.2a5.931,5.931,0,0,0,1.663-.853m-17.911,5.583,9.523-6.926a6.076,6.076,0,0,0,1.345,1.337l-6.941,9.522-6.037,8.29a28.062,28.062,0,0,1-6.186-6.191Zm20.107-8.582,11.193,3.656,9.755,3.185a27.644,27.644,0,0,1-4.006,7.818l-8.283-6.051-9.51-6.945a5.928,5.928,0,0,0,.852-1.662m-11.725-1.94v.068a5.847,5.847,0,0,0,.3,1.859L713.5,409.748l-9.757,3.166a28.037,28.037,0,0,1-1.361-8.657v-.068Zm22.936-5.393,9.775-3.148a28.112,28.112,0,0,1,1.343,8.608v.037l-10.259-.019-11.774-.019a6,6,0,0,0-.289-1.846Zm-39.545-11.112,8.265,6.069,9.5,6.964a6.11,6.11,0,0,0-.853,1.663L713.525,398.7l-9.743-3.2a27.736,27.736,0,0,1,4.024-7.811m33.109,2.215,6.056-8.282a27.972,27.972,0,0,1,6.179,6.209l-8.314,6.019-9.536,6.9a6,6,0,0,0-1.337-1.344Zm-19.071-12.345,3.136,9.769,3.6,11.21a6.011,6.011,0,0,0-1.662.847l-6.9-9.547-6.007-8.314a27.845,27.845,0,0,1,7.829-3.964m8.633,8.915.03-10.252a28.03,28.03,0,0,1,8.659,1.386l-3.2,9.749L732.3,398.545a6.025,6.025,0,0,0-1.853-.3Z" transform="translate(-51.893 -27.793)" fill="#9e8a8a"/>
          <path id="Trazado_1275" data-name="Trazado 1275" d="M739.133,406.06l11.774.019v-.019a17.661,17.661,0,0,0-.859-5.461l-11.2,3.614a6,6,0,0,1,.289,1.846" transform="translate(-54.59 -29.597)" fill="#8f7d7d"/>
          <path id="Trazado_1276" data-name="Trazado 1276" d="M737.918,410.18l9.51,6.945a17.782,17.782,0,0,0,2.535-4.951l-11.193-3.657a5.92,5.92,0,0,1-.852,1.663" transform="translate(-54.522 -30.182)" fill="#8f7d7d"/>
          <path id="Trazado_1277" data-name="Trazado 1277" d="M737.824,401.839l9.535-6.9a17.48,17.48,0,0,0-3.921-3.946l-6.953,9.5a6,6,0,0,1,1.338,1.344" transform="translate(-54.416 -28.886)" fill="#8f7d7d"/>
          <path id="Trazado_1278" data-name="Trazado 1278" d="M736.333,411.756a5.962,5.962,0,0,1-1.663.854l3.626,11.2a17.529,17.529,0,0,0,4.951-2.522Z" transform="translate(-54.281 -30.422)" fill="#8f7d7d"/>
          <path id="Trazado_1279" data-name="Trazado 1279" d="M732.721,387.287l-.031,11.781a6.025,6.025,0,0,1,1.853.3l3.669-11.193a17.73,17.73,0,0,0-5.491-.883" transform="translate(-54.135 -28.612)" fill="#8f7d7d"/>
          <path id="Trazado_1280" data-name="Trazado 1280" d="M730.363,412.671l-3.65,11.2a17.671,17.671,0,0,0,5.5.87l.013-11.78a6.206,6.206,0,0,1-1.859-.295" transform="translate(-53.693 -30.489)" fill="#8f7d7d"/>
          <path id="Trazado_1281" data-name="Trazado 1281" d="M728.329,400.266a6,6,0,0,1,1.663-.847l-3.6-11.21a17.445,17.445,0,0,0-4.957,2.51Z" transform="translate(-53.302 -28.68)" fill="#8f7d7d"/>
          <path id="Trazado_1282" data-name="Trazado 1282" d="M726.647,410.306l-9.523,6.927a17.544,17.544,0,0,0,3.927,3.933l6.94-9.522a6.034,6.034,0,0,1-1.344-1.337" transform="translate(-52.984 -30.315)" fill="#8f7d7d"/>
          <path id="Trazado_1283" data-name="Trazado 1283" d="M726.461,402.117l-9.5-6.964a17.753,17.753,0,0,0-2.547,4.945l11.193,3.682a6.084,6.084,0,0,1,.852-1.663" transform="translate(-52.783 -29.194)" fill="#8f7d7d"/>
          <path id="Trazado_1284" data-name="Trazado 1284" d="M713.455,406.422v.069a17.7,17.7,0,0,0,.864,5.491l11.211-3.633a5.822,5.822,0,0,1-.3-1.859v-.069Z" transform="translate(-52.712 -30.027)" fill="#8f7d7d"/>
          <path id="Trazado_1285" data-name="Trazado 1285" d="M771.292,389.888a1.533,1.533,0,0,1-1.471-1.1,42.373,42.373,0,0,0-81.286,0,1.534,1.534,0,0,1-2.943-.866,45.44,45.44,0,0,1,87.172,0,1.534,1.534,0,0,1-1.038,1.9,1.5,1.5,0,0,1-.434.063" transform="translate(-50.647 -26.248)" fill="#feffff"/>
          <path id="Trazado_1286" data-name="Trazado 1286" d="M322.685,420.3v-17a39.116,39.116,0,0,1,78.232,0v17Z" transform="translate(-23.808 -26.903)" fill="#523a35"/>
          <path id="Trazado_1287" data-name="Trazado 1287" d="M335.955,377.525q1.279-1.279,2.677-2.426t2.9-2.152q1.5-1,3.1-1.858t3.266-1.545q1.671-.692,3.4-1.217t3.5-.878q1.774-.353,3.574-.531t3.608-.177q1.809,0,3.609.177t3.574.531q1.774.353,3.505.878t3.4,1.217q1.671.692,3.266,1.545t3.1,1.858q1.5,1,2.9,2.152t2.677,2.426q1.278,1.279,2.426,2.677t2.152,2.9q1,1.5,1.858,3.1T396,389.469q.692,1.671,1.217,3.4t.878,3.5q.353,1.774.53,3.574t.178,3.608q0,1.809-.178,3.609t-.53,3.574q-.353,1.774-.878,3.505t-1.217,3.4q-.693,1.671-1.545,3.266t-1.858,3.1q-1,1.5-2.152,2.9t-2.426,2.677q-1.279,1.278-2.677,2.426t-2.9,2.152q-1.5,1-3.1,1.858t-3.266,1.545q-1.671.692-3.4,1.217t-3.505.878q-1.774.353-3.574.53t-3.609.178q-1.809,0-3.608-.178t-3.574-.53q-1.774-.353-3.5-.878t-3.4-1.217q-1.671-.693-3.266-1.545t-3.1-1.858q-1.5-1-2.9-2.152t-2.677-2.426q-1.279-1.279-2.426-2.677t-2.152-2.9q-1-1.5-1.858-3.1t-1.545-3.266q-.692-1.671-1.217-3.4t-.878-3.505q-.353-1.774-.531-3.574t-.177-3.609q0-1.809.177-3.608t.531-3.574q.353-1.774.878-3.5t1.217-3.4q.692-1.671,1.545-3.266t1.858-3.1q1-1.5,2.152-2.9t2.426-2.677" transform="translate(-23.992 -27.092)" fill="#523a35"/>
          <path id="Trazado_1288" data-name="Trazado 1288" d="M328.426,402.8h-.051a.922.922,0,0,1-.87-.97A34.7,34.7,0,0,1,360.26,369.08a.92.92,0,1,1,.1,1.837,32.853,32.853,0,0,0-31.016,31.017.922.922,0,0,1-.919.87" transform="translate(-24.165 -27.265)" fill="#a38181"/>
          <path id="Trazado_1289" data-name="Trazado 1289" d="M366.84,441.226a.92.92,0,0,1-.048-1.839,32.853,32.853,0,0,0,31.023-31.026.92.92,0,1,1,1.837.1,34.689,34.689,0,0,1-32.763,32.762.448.448,0,0,1-.049,0" transform="translate(-27.006 -30.106)" fill="#a38181"/>
          <path id="Trazado_1290" data-name="Trazado 1290" d="M393.351,404.025a30.886,30.886,0,1,1-61.771,0c0-.193,0-.369.016-.56a30.874,30.874,0,0,1,61.739,0c.017.192.017.368.017.56" transform="translate(-24.466 -27.566)" fill="#c8b2b2"/>
          <path id="Trazado_1291" data-name="Trazado 1291" d="M334.642,404.188v.067A28.031,28.031,0,0,0,362.658,432.3h.031a28.022,28.022,0,0,0,28.041-28.01v-.038a28.1,28.1,0,0,0-1.344-8.607,28.012,28.012,0,0,0-26.617-19.433h-.081a28.024,28.024,0,0,0-28.047,27.974" transform="translate(-24.693 -27.793)" fill="#b6a2a2"/>
          <path id="Trazado_1292" data-name="Trazado 1292" d="M357.175,421.179l3.65-11.2a6.225,6.225,0,0,0,1.859.3l-.011,11.78L362.66,432.3A28.024,28.024,0,0,1,354,430.929Zm9.032-12.05,6.915,9.535,6.026,8.3a27.859,27.859,0,0,1-7.823,3.982l-3.154-9.762-3.626-11.2a5.933,5.933,0,0,0,1.663-.853m-17.91,5.583,9.522-6.926a6.08,6.08,0,0,0,1.345,1.337l-6.941,9.522-6.037,8.29A28.059,28.059,0,0,1,340,420.743Zm20.106-8.582,11.193,3.656,9.755,3.185a27.649,27.649,0,0,1-4.006,7.818l-8.283-6.051-9.51-6.945a5.925,5.925,0,0,0,.852-1.662m-11.725-1.94v.068a5.847,5.847,0,0,0,.3,1.859l-11.211,3.632-9.755,3.166a27.985,27.985,0,0,1-1.363-8.657v-.068Zm22.936-5.393,9.775-3.148a28.11,28.11,0,0,1,1.343,8.608v.037l-10.259-.019-11.775-.019a6,6,0,0,0-.289-1.846Zm-39.545-11.112,8.265,6.069,9.5,6.964a6.11,6.11,0,0,0-.853,1.663L345.787,398.7l-9.744-3.2a27.759,27.759,0,0,1,4.025-7.811m33.109,2.215,6.056-8.282a27.973,27.973,0,0,1,6.179,6.209l-8.314,6.019-9.534,6.9a6.061,6.061,0,0,0-1.338-1.344Zm-19.071-12.345,3.136,9.769,3.6,11.21a6,6,0,0,0-1.663.847l-6.9-9.547-6.007-8.314a27.857,27.857,0,0,1,7.829-3.964m8.633,8.915.031-10.252a28.029,28.029,0,0,1,8.658,1.386l-3.2,9.749-3.669,11.193a6.021,6.021,0,0,0-1.853-.3Z" transform="translate(-24.693 -27.793)" fill="#9e8a8a"/>
          <path id="Trazado_1293" data-name="Trazado 1293" d="M371.4,406.06l11.775.019v-.019a17.661,17.661,0,0,0-.859-5.461l-11.2,3.614a6,6,0,0,1,.289,1.846" transform="translate(-27.39 -29.597)" fill="#8f7d7d"/>
          <path id="Trazado_1294" data-name="Trazado 1294" d="M370.179,410.18l9.51,6.945a17.759,17.759,0,0,0,2.535-4.951l-11.193-3.657a5.917,5.917,0,0,1-.852,1.663" transform="translate(-27.321 -30.182)" fill="#8f7d7d"/>
          <path id="Trazado_1295" data-name="Trazado 1295" d="M370.086,401.839l9.534-6.9a17.477,17.477,0,0,0-3.921-3.946l-6.951,9.5a6.054,6.054,0,0,1,1.337,1.344" transform="translate(-27.216 -28.886)" fill="#8f7d7d"/>
          <path id="Trazado_1296" data-name="Trazado 1296" d="M368.594,411.756a5.96,5.96,0,0,1-1.663.854l3.626,11.2a17.516,17.516,0,0,0,4.951-2.522Z" transform="translate(-27.081 -30.422)" fill="#8f7d7d"/>
          <path id="Trazado_1297" data-name="Trazado 1297" d="M364.981,387.287l-.031,11.781a6.02,6.02,0,0,1,1.853.3l3.669-11.193a17.726,17.726,0,0,0-5.491-.883" transform="translate(-26.935 -28.612)" fill="#8f7d7d"/>
          <path id="Trazado_1298" data-name="Trazado 1298" d="M362.626,412.671l-3.651,11.2a17.678,17.678,0,0,0,5.5.87l.012-11.78a6.2,6.2,0,0,1-1.859-.295" transform="translate(-26.493 -30.489)" fill="#8f7d7d"/>
          <path id="Trazado_1299" data-name="Trazado 1299" d="M360.589,400.266a6,6,0,0,1,1.663-.847l-3.6-11.21a17.458,17.458,0,0,0-4.957,2.51Z" transform="translate(-26.102 -28.68)" fill="#8f7d7d"/>
          <path id="Trazado_1300" data-name="Trazado 1300" d="M358.91,410.306l-9.523,6.927a17.544,17.544,0,0,0,3.927,3.933l6.94-9.522a6.035,6.035,0,0,1-1.344-1.337" transform="translate(-25.784 -30.315)" fill="#8f7d7d"/>
          <path id="Trazado_1301" data-name="Trazado 1301" d="M358.721,402.117l-9.5-6.964a17.728,17.728,0,0,0-2.546,4.945l11.192,3.682a6.108,6.108,0,0,1,.852-1.663" transform="translate(-25.583 -29.194)" fill="#8f7d7d"/>
          <path id="Trazado_1302" data-name="Trazado 1302" d="M345.715,406.422v.069a17.671,17.671,0,0,0,.865,5.491l11.21-3.633a5.872,5.872,0,0,1-.294-1.859v-.069Z" transform="translate(-25.512 -30.027)" fill="#8f7d7d"/>
          <path id="Trazado_1303" data-name="Trazado 1303" d="M403.552,389.888a1.534,1.534,0,0,1-1.471-1.1,42.372,42.372,0,0,0-81.285,0,1.534,1.534,0,0,1-2.943-.866,45.44,45.44,0,0,1,87.171,0,1.534,1.534,0,0,1-1.038,1.9,1.505,1.505,0,0,1-.434.063" transform="translate(-23.446 -26.248)" fill="#feffff"/>
          <rect id="Rectángulo_836" data-name="Rectángulo 836" width="3.067" height="59.983" transform="translate(607.865 318.065)" fill="#d1cecd"/>
          <rect id="Rectángulo_837" data-name="Rectángulo 837" width="3.068" height="62.481" transform="translate(493.685 314.952)" fill="#d1cecd"/>
          <path id="Trazado_1304" data-name="Trazado 1304" d="M431.686,403.258l-18.845-66.444,2.971-.695,18.845,66.444Z" transform="translate(-30.477 -24.827)" fill="#d1cecd"/>
          <rect id="Rectángulo_838" data-name="Rectángulo 838" width="3.068" height="38.381" transform="translate(493.685 266.932)" fill="#feffff"/>
          <rect id="Rectángulo_839" data-name="Rectángulo 839" width="3.068" height="23.656" transform="translate(382.317 278.109)" fill="#feffff"/>
          <path id="Trazado_1305" data-name="Trazado 1305" d="M652.663,408.957H420.728a1.534,1.534,0,1,1,0-3.068H652.663a1.534,1.534,0,0,1,0,3.068" transform="translate(-30.947 -29.988)" fill="#feffff"/>
          <rect id="Rectángulo_840" data-name="Rectángulo 840" width="23.316" height="3.068" transform="translate(501.559 317.641)" fill="#523a35"/>
          <rect id="Rectángulo_841" data-name="Rectángulo 841" width="23.316" height="3.068" transform="translate(396.633 317.641)" fill="#523a35"/>
          <path id="Trazado_1306" data-name="Trazado 1306" d="M268.04,380.091v13.69h34.949V376.613H271.409a3.477,3.477,0,0,0-3.369,3.478" transform="translate(-19.767 -27.822)" fill="#f8f8f8"/>
          <path id="Trazado_1307" data-name="Trazado 1307" d="M309.876,382.039H283.637a5.433,5.433,0,0,1-5.433-5.433h31.672Z" transform="translate(-20.518 -27.822)" fill="#f0edeb"/>
          <path id="Trazado_1308" data-name="Trazado 1308" d="M774.9,416.454v7.706H821.67a3.359,3.359,0,0,0,3.362-3.362v-.982a3.229,3.229,0,0,0-.092-.773,3.361,3.361,0,0,0-3.271-2.589Z" transform="translate(-57.257 -30.769)" fill="#f0edeb"/>
          <path id="Trazado_1309" data-name="Trazado 1309" d="M798.969,398.564V405.8c0,.123,0,.239.006.357a9.923,9.923,0,0,0,.626,3.03,9.743,9.743,0,0,0,.669,1.369,9.01,9.01,0,0,0,1.264,1.662,9.192,9.192,0,0,0,1.626,1.37,9.293,9.293,0,0,0,5.136,1.539h15.242V398.564Z" transform="translate(-59.037 -29.446)" fill="#9e8e8e"/>
          <path id="Trazado_1310" data-name="Trazado 1310" d="M781.687,416.454a2.589,2.589,0,0,0,2.589,2.589h41.166a3.362,3.362,0,0,0-3.271-2.589Z" transform="translate(-57.759 -30.769)" fill="#feffff"/>
          <rect id="Rectángulo_842" data-name="Rectángulo 842" width="24.568" height="1.369" transform="translate(739.934 370.658)" fill="#c8b2b2"/>
          <rect id="Rectángulo_843" data-name="Rectángulo 843" width="24.568" height="1.369" transform="translate(739.934 373.687)" fill="#c8b2b2"/>
          <path id="Trazado_1311" data-name="Trazado 1311" d="M798.975,406.768a8.269,8.269,0,0,0,.16,1.368h24.4v-1.368Z" transform="translate(-59.038 -30.053)" fill="#c8b2b2"/>
          <path id="Trazado_1312" data-name="Trazado 1312" d="M799.652,410.041a9.782,9.782,0,0,0,.669,1.368h23.267v-1.368Z" transform="translate(-59.088 -30.295)" fill="#c8b2b2"/>
          <path id="Trazado_1313" data-name="Trazado 1313" d="M801.738,413.314a9.15,9.15,0,0,0,1.626,1.369H823.74v-1.369Z" transform="translate(-59.242 -30.537)" fill="#c8b2b2"/>
          <rect id="Rectángulo_844" data-name="Rectángulo 844" width="24.574" height="3.853" transform="translate(739.931 362.105)" fill="#feffff"/>
          <path id="Trazado_1314" data-name="Trazado 1314" d="M791.163,366.74c-.031,7.075,5.234,10.769,11.013,13.119a16.366,16.366,0,0,0,1.6.545,38.888,38.888,0,0,0,5.08,1.068c.792.117,1.583.215,2.374.307,3.043.349,5.952.509,7.718.582,1.087.043,1.743.056,1.743.056a5.236,5.236,0,0,0-1.332-3.4c-1.914-2.56-5.731-5.486-10.5-7.835a44.869,44.869,0,0,0-9.836-3.511c-.22-.055-.443-.1-.663-.154-.821-.171-1.65-.319-2.484-.434a33.577,33.577,0,0,0-4.43-.344Z" transform="translate(-58.46 -27.092)" fill="#fdd6a3"/>
          <path id="Trazado_1315" data-name="Trazado 1315" d="M798.936,367.582l12.866,14.26c3.044.349,5.953.509,7.719.582l-10.086-11.179a45.022,45.022,0,0,0-10.5-3.663" transform="translate(-59.035 -27.154)" fill="#ffeec6"/>
          <path id="Trazado_1316" data-name="Trazado 1316" d="M791.466,366.74,803.793,380.4a38.89,38.89,0,0,0,5.08,1.068L795.9,367.084a33.576,33.576,0,0,0-4.43-.344" transform="translate(-58.482 -27.092)" fill="#ffeec6"/>
          <g id="Grupo_1068" data-name="Grupo 1068" transform="translate(0.059 0.034)" opacity="0.129" style="mix-blend-mode: normal;isolation: isolate">
            <g id="Grupo_1067" data-name="Grupo 1067">
              <g id="Grupo_1066" data-name="Grupo 1066" clip-path="url(#clip-path-4)">
                <g id="Grupo_1065" data-name="Grupo 1065" transform="translate(0 0.001)">
                  <g id="Grupo_1064" data-name="Grupo 1064" clip-path="url(#clip-path-5)">
                    <path id="Trazado_1317" data-name="Trazado 1317" d="M799.65,367.748v.687A10.655,10.655,0,0,0,810.3,379.093h9.683c-1.914-2.559-5.731-5.485-10.5-7.835a44.921,44.921,0,0,0-9.836-3.51" transform="translate(-59.147 -27.202)" fill="#523a35"/>
                  </g>
                </g>
              </g>
            </g>
          </g>
          <g id="Grupo_1073" data-name="Grupo 1073" transform="translate(0.059 0.034)" opacity="0.239" style="mix-blend-mode: normal;isolation: isolate">
            <g id="Grupo_1072" data-name="Grupo 1072">
              <g id="Grupo_1071" data-name="Grupo 1071" clip-path="url(#clip-path-4)">
                <g id="Grupo_1070" data-name="Grupo 1070" transform="translate(0 0.001)">
                  <g id="Grupo_1069" data-name="Grupo 1069" clip-path="url(#clip-path-5)">
                    <rect id="Rectángulo_847" data-name="Rectángulo 847" width="9.233" height="16.585" transform="translate(755.213 369.065)" fill="#523a35"/>
                  </g>
                </g>
              </g>
            </g>
          </g>
          <g id="Grupo_1078" data-name="Grupo 1078" transform="translate(0.059 0.034)" opacity="0.502" style="mix-blend-mode: normal;isolation: isolate">
            <g id="Grupo_1077" data-name="Grupo 1077">
              <g id="Grupo_1076" data-name="Grupo 1076" clip-path="url(#clip-path-4)">
                <g id="Grupo_1075" data-name="Grupo 1075" transform="translate(0 0.001)">
                  <g id="Grupo_1074" data-name="Grupo 1074" clip-path="url(#clip-path-5)">
                    <rect id="Rectángulo_850" data-name="Rectángulo 850" width="24.568" height="3.674" transform="translate(739.878 369.065)" fill="#523a35"/>
                  </g>
                </g>
              </g>
            </g>
          </g>
          <path id="Trazado_1318" data-name="Trazado 1318" d="M499.5,275.116a352.812,352.812,0,0,0-42.027,3.257q-5.923.811-11.564,1.807a327.876,327.876,0,0,0-61.428,17.02q-6.084,2.335-11.577,4.655c-10.9,4.579-20.126,8.989-27.866,12.529-11.225,5.134-40.212,8.1-40.212,8.1l2.948.183-4.856-.183a8.892,8.892,0,0,0-8.9,8.9l-.1.9-.479,4.2-1.361,11.938L289.722,369.1H283.8a3.488,3.488,0,0,0-3.49,3.483V387.93a25.532,25.532,0,0,0,25.535,25.535H293.577A25.532,25.532,0,0,1,268.04,387.93V372.579a3.483,3.483,0,0,1,3.484-3.483h5.934l2.349-20.679,1.354-11.95.48-4.188.107-.9a8.894,8.894,0,0,1,8.895-8.9l4.863.183-2.948-.183s28.981-2.965,40.2-8.1c10.489-4.8,23.722-11.2,40.144-17.443q5.537-2.116,11.571-4.175a325.658,325.658,0,0,1,61.434-14.494q5.651-.775,11.564-1.379a363.809,363.809,0,0,1,36.956-1.847c1.7,0,3.388.032,5.071.07" transform="translate(-19.767 -20.31)" fill="#edeae8"/>
          <path id="Trazado_1319" data-name="Trazado 1319" d="M820.614,382.818a.92.92,0,0,1-.9-.742c-.021-.094-1.367-5.938-11.511-10.5-10.472-4.712-16.94-4-17-3.995a.921.921,0,1,1-.22-1.828c.282-.032,7.046-.775,17.977,4.146,11.132,5.009,12.51,11.551,12.562,11.828a.919.919,0,0,1-.729,1.077.963.963,0,0,1-.176.018" transform="translate(-58.386 -27.015)" fill="#523a35"/>
          <path id="Trazado_1320" data-name="Trazado 1320" d="M294,353.322h.978a5.6,5.6,0,0,0,5.6-5.6v-.755a5.6,5.6,0,0,0-5.222-5.582Z" transform="translate(-21.687 -25.217)" fill="#cf5b4d"/>
          <path id="Trazado_1321" data-name="Trazado 1321" d="M280.745,353.321h12.273l1.358-11.933c-.124-.007-.256-.015-.381-.015H282.1Z" transform="translate(-20.706 -25.216)" fill="#ba5245"/>
          <g id="Grupo_1083" data-name="Grupo 1083" transform="translate(307.112 375.898)" opacity="0.2">
            <g id="Grupo_1082" data-name="Grupo 1082">
              <g id="Grupo_1081" data-name="Grupo 1081" clip-path="url(#clip-path-12)">
                <g id="Grupo_1080" data-name="Grupo 1080" transform="translate(0 0)">
                  <g id="Grupo_1079" data-name="Grupo 1079" clip-path="url(#clip-path-12)">
                    <path id="Trazado_1322" data-name="Trazado 1322" d="M393.349,406.446a30.886,30.886,0,1,1-61.771,0c0-.193,0-.369.016-.56h61.739c.017.192.017.368.017.56" transform="translate(-331.578 -405.886)" fill="#523a35"/>
                  </g>
                </g>
              </g>
            </g>
          </g>
          <g id="Grupo_1088" data-name="Grupo 1088" transform="translate(647.645 376.395)" opacity="0.2">
            <g id="Grupo_1087" data-name="Grupo 1087">
              <g id="Grupo_1086" data-name="Grupo 1086" clip-path="url(#clip-path-14)">
                <g id="Grupo_1085" data-name="Grupo 1085" transform="translate(0 0)">
                  <g id="Grupo_1084" data-name="Grupo 1084" clip-path="url(#clip-path-14)">
                    <path id="Trazado_1323" data-name="Trazado 1323" d="M761.082,406.422v.064a30.886,30.886,0,1,1-61.771,0v-.064Z" transform="translate(-699.311 -406.422)" fill="#523a35"/>
                  </g>
                </g>
              </g>
            </g>
          </g>
          <rect id="Rectángulo_857" data-name="Rectángulo 857" width="114.769" height="185.845" transform="translate(93.089 229.461)" fill="#d3d3d3"/>
          <rect id="Rectángulo_858" data-name="Rectángulo 858" width="90.471" height="146.499" transform="translate(93.089 268.806)" fill="#606060"/>
          <path id="Trazado_1324" data-name="Trazado 1324" d="M229.946,329.172a3.837,3.837,0,1,0,3.837,3.838,3.839,3.839,0,0,0-3.837-3.838" transform="translate(-16.665 -24.313)" fill="#f0edeb"/>
          <path id="Trazado_1325" data-name="Trazado 1325" d="M887.948,329.172a3.837,3.837,0,1,0,3.837,3.838,3.838,3.838,0,0,0-3.837-3.838" transform="translate(-65.335 -24.313)" fill="#f0edeb"/>
          <path id="Trazado_1326" data-name="Trazado 1326" d="M830.2,375.98h44.714l38.518-24.766H868.715Z" transform="translate(-61.347 -25.944)" fill="#7d411b"/>
          <rect id="Rectángulo_859" data-name="Rectángulo 859" width="2.734" height="17.28" transform="translate(163.669 237.506)" fill="#363232"/>
          <rect id="Rectángulo_860" data-name="Rectángulo 860" width="2.734" height="17.28" transform="translate(157.073 237.506)" fill="#363232"/>
          <rect id="Rectángulo_861" data-name="Rectángulo 861" width="2.734" height="17.28" transform="translate(150.477 237.506)" fill="#363232"/>
          <rect id="Rectángulo_862" data-name="Rectángulo 862" width="2.734" height="17.28" transform="translate(143.881 237.506)" fill="#363232"/>
          <rect id="Rectángulo_863" data-name="Rectángulo 863" width="33.995" height="53.258" transform="translate(92.686 187.878)" fill="#363232"/>
          <rect id="Rectángulo_864" data-name="Rectángulo 864" width="33.995" height="4.584" transform="translate(92.686 194.251)" fill="#bd493b"/>
          <rect id="Rectángulo_865" data-name="Rectángulo 865" width="64.638" height="6.373" transform="translate(28.654 216.095)" fill="#363232"/>
          <rect id="Rectángulo_866" data-name="Rectángulo 866" width="39.754" height="87.55" transform="translate(90.013 106.695)" fill="#828282"/>
          <rect id="Rectángulo_867" data-name="Rectángulo 867" width="9.183" height="87.55" transform="translate(96.575 106.695)" fill="#d3d3d3"/>
          <rect id="Rectángulo_868" data-name="Rectángulo 868" width="94.123" height="111.99" transform="translate(36.656 303.375)" fill="#363232"/>
          <rect id="Rectángulo_869" data-name="Rectángulo 869" width="31.831" height="111.99" transform="translate(47.58 303.375)" fill="#474242"/>
          <rect id="Rectángulo_870" data-name="Rectángulo 870" width="94.123" height="10.918" transform="translate(36.656 284.527)" fill="#363232"/>
          <rect id="Rectángulo_871" data-name="Rectángulo 871" width="81.909" height="7.931" transform="translate(42.761 295.445)" fill="#292626"/>
          <rect id="Rectángulo_872" data-name="Rectángulo 872" width="31.831" height="10.918" transform="translate(47.58 284.527)" fill="#474242"/>
          <rect id="Rectángulo_873" data-name="Rectángulo 873" width="94.123" height="2.731" transform="translate(36.656 311.383)" fill="#292626"/>
          <rect id="Rectángulo_874" data-name="Rectángulo 874" width="74.247" height="22.304" transform="translate(47.58 262.221)" fill="#d3d3d3"/>
          <rect id="Rectángulo_875" data-name="Rectángulo 875" width="94.399" height="7.435" transform="translate(36.379 254.787)" fill="#363232"/>
          <rect id="Rectángulo_876" data-name="Rectángulo 876" width="33.154" height="22.304" transform="translate(88.672 262.221)" fill="#828282"/>
          <rect id="Rectángulo_877" data-name="Rectángulo 877" width="13.394" height="22.304" transform="translate(47.58 262.221)" fill="#828282"/>
          <rect id="Rectángulo_878" data-name="Rectángulo 878" width="93.843" height="32.325" transform="translate(36.934 222.467)" fill="#828282"/>
          <rect id="Rectángulo_879" data-name="Rectángulo 879" width="36.629" height="32.376" transform="translate(36.934 222.467)" fill="#d3d3d3"/>
          <path id="Trazado_1327" data-name="Trazado 1327" d="M116.93,216.448A20.892,20.892,0,0,0,96.038,237.34v33.428h41.785V237.34a20.893,20.893,0,0,0-20.893-20.892" transform="translate(-7.044 -15.976)" fill="#828282"/>
          <path id="Trazado_1328" data-name="Trazado 1328" d="M114.326,225.729a13.313,13.313,0,0,1,16.127,9.708,13.311,13.311,0,1,1-16.127-9.708" transform="translate(-7.65 -16.633)" fill="#363232"/>
          <path id="Trazado_1329" data-name="Trazado 1329" d="M117.725,229.732a9.1,9.1,0,1,0,9.1,9.1,9.114,9.114,0,0,0-9.1-9.1m0,20.029a10.924,10.924,0,1,1,10.924-10.925,10.937,10.937,0,0,1-10.924,10.925" transform="translate(-7.84 -16.824)" fill="#d3d3d3"/>
          <rect id="Rectángulo_880" data-name="Rectángulo 880" width="39.744" height="2.238" transform="translate(90.023 168.45)" fill="#363232"/>
          <rect id="Rectángulo_881" data-name="Rectángulo 881" width="39.744" height="2.238" transform="translate(90.023 163.443)" fill="#363232"/>
          <rect id="Rectángulo_882" data-name="Rectángulo 882" width="39.744" height="2.238" transform="translate(90.023 135.676)" fill="#363232"/>
          <rect id="Rectángulo_883" data-name="Rectángulo 883" width="39.744" height="2.238" transform="translate(90.023 130.669)" fill="#363232"/>
          <rect id="Rectángulo_884" data-name="Rectángulo 884" width="55.202" height="6.373" transform="translate(28.654 209.722)" fill="#828282"/>
          <rect id="Rectángulo_885" data-name="Rectángulo 885" width="19.317" height="1.82" transform="translate(102.77 228.201) rotate(-45.019)" fill="#ddd"/>
          <path id="Trazado_1330" data-name="Trazado 1330" d="M363.356,6.853l-36.3,7.137,4.322,21.98,36.3-7.136a8.254,8.254,0,0,0,6.507-9.692l-1.136-5.782a8.255,8.255,0,0,0-9.692-6.507" transform="translate(-24.132 -0.461)" fill="#828282"/>
          <rect id="Rectángulo_886" data-name="Rectángulo 886" width="24.888" height="7.06" transform="translate(312.28 15.955) rotate(-11.121)" fill="#d3d3d3"/>
          <rect id="Rectángulo_887" data-name="Rectángulo 887" width="77.08" height="52.348" transform="translate(67.334 45.892) rotate(-11.122)" fill="#606060"/>
          <rect id="Rectángulo_888" data-name="Rectángulo 888" width="77.081" height="17.816" transform="matrix(0.981, -0.193, 0.193, 0.981, 68.394, 51.277)" fill="#d3d3d3"/>
          <path id="Trazado_1331" data-name="Trazado 1331" d="M114.731,51.1l-1.227.242a19.245,19.245,0,0,0-15.172,22.6l4.606,23.431,39-7.667-4.606-23.432a19.247,19.247,0,0,0-22.6-15.171" transform="translate(-7.187 -3.719)" fill="#363232"/>
          <rect id="Rectángulo_889" data-name="Rectángulo 889" width="10.279" height="39.721" transform="matrix(0.981, -0.193, 0.193, 0.981, 58.633, 54.913)" fill="#363232"/>
          <rect id="Rectángulo_890" data-name="Rectángulo 890" width="27.724" height="16.315" transform="translate(25.404 60.895) rotate(-11.122)" fill="#606060"/>
          <rect id="Rectángulo_891" data-name="Rectángulo 891" width="27.724" height="16.315" transform="translate(29.74 82.949) rotate(-11.122)" fill="#606060"/>
          <rect id="Rectángulo_892" data-name="Rectángulo 892" width="6.034" height="10.559" transform="translate(53.163 58.371) rotate(-11.124)" fill="#363232"/>
          <rect id="Rectángulo_893" data-name="Rectángulo 893" width="6.033" height="10.559" transform="translate(57.499 80.425) rotate(-11.124)" fill="#363232"/>
          <rect id="Rectángulo_894" data-name="Rectángulo 894" width="3.394" height="44.748" transform="matrix(0.981, -0.193, 0.193, 0.981, 61.946, 51.999)" fill="#828282"/>
          <rect id="Rectángulo_895" data-name="Rectángulo 895" width="10.35" height="37.672" transform="translate(144.144 37.009) rotate(-11.122)" fill="#363232"/>
          <rect id="Rectángulo_896" data-name="Rectángulo 896" width="74.575" height="40.233" transform="translate(154.052 33.756) rotate(-11.122)" fill="#828282"/>
          <rect id="Rectángulo_897" data-name="Rectángulo 897" width="70.289" height="31.58" transform="matrix(0.981, -0.193, 0.193, 0.981, 228.076, 23.69)" fill="#828282"/>
          <rect id="Rectángulo_898" data-name="Rectángulo 898" width="27.725" height="4.45" transform="translate(25.959 63.719) rotate(-11.122)" fill="#d3d3d3"/>
          <rect id="Rectángulo_899" data-name="Rectángulo 899" width="74.395" height="11.312" transform="translate(154.967 38.404) rotate(-11.122)" fill="#d3d3d3"/>
          <rect id="Rectángulo_900" data-name="Rectángulo 900" width="27.725" height="4.45" transform="translate(30.398 86.295) rotate(-11.122)" fill="#d3d3d3"/>
          <rect id="Rectángulo_901" data-name="Rectángulo 901" width="3.394" height="6.033" transform="matrix(0.981, -0.193, 0.193, 0.981, 63.457, 59.687)" fill="#363232"/>
          <rect id="Rectángulo_902" data-name="Rectángulo 902" width="3.184" height="35.95" transform="matrix(0.981, -0.193, 0.193, 0.981, 227.633, 21.427)" fill="#363232"/>
          <rect id="Rectángulo_903" data-name="Rectángulo 903" width="1.697" height="16.314" transform="translate(51.375 78.696) rotate(-11.107)" fill="#363232"/>
          <rect id="Rectángulo_904" data-name="Rectángulo 904" width="1.697" height="16.314" transform="translate(47.04 56.641) rotate(-11.107)" fill="#363232"/>
          <rect id="Rectángulo_905" data-name="Rectángulo 905" width="2.849" height="52.348" transform="translate(135.523 32.487) rotate(-11.131)" fill="#363232"/>
          <rect id="Rectángulo_906" data-name="Rectángulo 906" width="67.104" height="10.009" transform="translate(231.904 26.656) rotate(-11.123)" fill="#d3d3d3"/>
          <rect id="Rectángulo_907" data-name="Rectángulo 907" width="2.011" height="31.58" transform="matrix(0.981, -0.193, 0.193, 0.981, 284.773, 12.543)" fill="#363232"/>
          <rect id="Rectángulo_908" data-name="Rectángulo 908" width="1.991" height="22.606" transform="translate(334.879 7.047) rotate(-11.127)" fill="#363232"/>
          <rect id="Rectángulo_909" data-name="Rectángulo 909" width="2.011" height="31.694" transform="matrix(0.981, -0.193, 0.193, 0.981, 279.57, 13.443)" fill="#363232"/>
          <rect id="Rectángulo_910" data-name="Rectángulo 910" width="2.011" height="40.259" transform="translate(211.686 22.425) rotate(-11.123)" fill="#363232"/>
          <rect id="Rectángulo_911" data-name="Rectángulo 911" width="2.011" height="40.259" transform="translate(205.766 23.589) rotate(-11.123)" fill="#363232"/>
          <rect id="Rectángulo_912" data-name="Rectángulo 912" width="13.826" height="22.401" transform="translate(297.906 14.515) rotate(-11.121)" fill="#363232"/>
          <path id="Trazado_1332" data-name="Trazado 1332" d="M117.3,58.109a16.459,16.459,0,0,0-16.46,16.459V110.96h32.92V74.568A16.459,16.459,0,0,0,117.3,58.109" transform="translate(-7.399 -4.264)" fill="#828282"/>
          <path id="Trazado_1333" data-name="Trazado 1333" d="M117.772,65.109A10.486,10.486,0,1,0,128.258,75.6a10.487,10.487,0,0,0-10.485-10.487" transform="translate(-7.876 -4.782)" fill="#363232"/>
          <path id="Trazado_1334" data-name="Trazado 1334" d="M117.924,68.574a7.173,7.173,0,1,0,7.172,7.172,7.18,7.18,0,0,0-7.172-7.172m0,15.78a8.607,8.607,0,1,1,8.607-8.607,8.617,8.617,0,0,1-8.607,8.607" transform="translate(-8.027 -4.932)" fill="#ddd"/>
          <rect id="Rectángulo_913" data-name="Rectángulo 913" width="15.218" height="1.435" transform="matrix(0.707, -0.707, 0.707, 0.707, 104.287, 75.684)" fill="#ddd"/>
          <rect id="Rectángulo_914" data-name="Rectángulo 914" width="14.836" height="1.916" transform="translate(53.659 225.795)" fill="#363232"/>
          <rect id="Rectángulo_915" data-name="Rectángulo 915" width="14.836" height="1.916" transform="translate(53.659 229.482)" fill="#363232"/>
          <rect id="Rectángulo_916" data-name="Rectángulo 916" width="14.836" height="1.916" transform="translate(53.659 233.169)" fill="#363232"/>
          <rect id="Rectángulo_917" data-name="Rectángulo 917" width="33.219" height="6.373" transform="translate(28.654 209.722)" fill="#d3d3d3"/>
          <rect id="Rectángulo_918" data-name="Rectángulo 918" width="37.375" height="3.047" transform="translate(91.203 103.648)" fill="#363232"/>
          <path id="Trazado_1335" data-name="Trazado 1335" d="M36.6,348.384c-21.205,0-36.6-14.851-36.6-35.311v-7.69c0-19.726,17.756-35.775,39.58-35.775H61.933c24.918,0,45.19-18.022,45.19-40.173l.043-35.915,6.033.007-.042,35.913c0,25.474-22.98,46.2-51.224,46.2H39.58c-18.5,0-33.546,13.341-33.546,29.741v7.69c0,16.964,12.853,29.277,30.562,29.277Z" transform="translate(0.059 -14.28)" fill="#7d3135"/>
          <path id="Trazado_1336" data-name="Trazado 1336" d="M36.662,335.844A35.815,35.815,0,0,1,.887,300.07v-7.69a35.815,35.815,0,0,1,35.775-35.774H56.688a40.219,40.219,0,0,0,40.173-40.174V194.948h6.033v21.484a46.259,46.259,0,0,1-46.206,46.207H36.662A29.774,29.774,0,0,0,6.921,292.38v7.69a29.774,29.774,0,0,0,29.741,29.741Z" transform="translate(-0.006 -14.385)" fill="#993c40"/>
          <rect id="Rectángulo_919" data-name="Rectángulo 919" width="25.177" height="32.601" transform="translate(92.686 155.277)" fill="#606060"/>
          <rect id="Rectángulo_920" data-name="Rectángulo 920" width="17.555" height="32.601" transform="translate(92.686 155.277)" fill="#d3d3d3"/>
          <path id="Trazado_1337" data-name="Trazado 1337" d="M867.832,99.951l1-.248a15.823,15.823,0,0,1,19.177,11.53l4.745,19.049-31.706,7.9-4.744-19.05a15.823,15.823,0,0,1,11.53-19.177" transform="translate(-63.243 -7.306)" fill="#363232"/>
          <rect id="Rectángulo_921" data-name="Rectángulo 921" width="27.162" height="42.556" transform="translate(795.63 233.742)" fill="#363232"/>
          <rect id="Rectángulo_922" data-name="Rectángulo 922" width="27.162" height="3.662" transform="translate(795.63 238.834)" fill="#666"/>
          <rect id="Rectángulo_923" data-name="Rectángulo 923" width="51.649" height="5.092" transform="translate(822.309 256.288)" fill="#363232"/>
          <rect id="Rectángulo_924" data-name="Rectángulo 924" width="31.765" height="100.344" transform="translate(793.164 138.485)" fill="#828282"/>
          <rect id="Rectángulo_925" data-name="Rectángulo 925" width="7.337" height="100.344" transform="translate(812.349 138.485)" fill="#e2e2e2"/>
          <rect id="Rectángulo_926" data-name="Rectángulo 926" width="75.208" height="89.485" transform="translate(792.356 326.029)" fill="#363232"/>
          <rect id="Rectángulo_927" data-name="Rectángulo 927" width="25.434" height="89.485" transform="translate(833.401 326.029)" fill="#474242"/>
          <rect id="Rectángulo_928" data-name="Rectángulo 928" width="75.208" height="8.724" transform="translate(792.356 310.968)" fill="#363232"/>
          <rect id="Rectángulo_929" data-name="Rectángulo 929" width="65.448" height="6.337" transform="translate(797.237 319.692)" fill="#292626"/>
          <rect id="Rectángulo_930" data-name="Rectángulo 930" width="25.434" height="8.724" transform="translate(833.401 310.968)" fill="#474242"/>
          <rect id="Rectángulo_931" data-name="Rectángulo 931" width="75.208" height="2.183" transform="translate(792.356 332.428)" fill="#292626"/>
          <rect id="Rectángulo_932" data-name="Rectángulo 932" width="59.325" height="17.822" transform="translate(799.51 293.145)" fill="#363232"/>
          <rect id="Rectángulo_933" data-name="Rectángulo 933" width="75.429" height="5.941" transform="translate(792.356 287.205)" fill="#363232"/>
          <rect id="Rectángulo_934" data-name="Rectángulo 934" width="26.491" height="17.822" transform="translate(799.51 293.145)" fill="#828282"/>
          <rect id="Rectángulo_935" data-name="Rectángulo 935" width="10.702" height="17.822" transform="translate(848.133 293.145)" fill="#b2b2b2"/>
          <rect id="Rectángulo_936" data-name="Rectángulo 936" width="74.985" height="25.829" transform="translate(792.356 261.38)" fill="#b2b2b2"/>
          <rect id="Rectángulo_937" data-name="Rectángulo 937" width="29.268" height="25.87" transform="translate(838.074 261.38)" fill="#e2e2e2"/>
          <path id="Trazado_1338" data-name="Trazado 1338" d="M872.275,263.242a16.7,16.7,0,0,1,16.695,16.694v26.71H855.581v-26.71a16.694,16.694,0,0,1,16.694-16.694" transform="translate(-63.225 -19.437)" fill="#828282"/>
          <path id="Trazado_1339" data-name="Trazado 1339" d="M862.262,279.27a10.638,10.638,0,1,1-.131,2.081,10.6,10.6,0,0,1,.131-2.081" transform="translate(-63.708 -19.962)" fill="#363232"/>
          <path id="Trazado_1340" data-name="Trazado 1340" d="M872.912,273.857a7.274,7.274,0,1,0,7.275,7.274,7.283,7.283,0,0,0-7.275-7.274m0,16a8.729,8.729,0,1,1,8.73-8.73,8.739,8.739,0,0,1-8.73,8.73" transform="translate(-63.861 -20.114)" fill="#e2e2e2"/>
          <rect id="Rectángulo_938" data-name="Rectángulo 938" width="31.756" height="1.788" transform="translate(793.164 218.219)" fill="#363232"/>
          <rect id="Rectángulo_939" data-name="Rectángulo 939" width="31.756" height="1.788" transform="translate(793.164 214.217)" fill="#363232"/>
          <rect id="Rectángulo_940" data-name="Rectángulo 940" width="31.756" height="1.788" transform="translate(793.164 161.643)" fill="#363232"/>
          <rect id="Rectángulo_941" data-name="Rectángulo 941" width="31.756" height="1.788" transform="translate(793.164 157.641)" fill="#363232"/>
          <rect id="Rectángulo_942" data-name="Rectángulo 942" width="44.109" height="5.092" transform="translate(829.849 251.196)" fill="#b2b2b2"/>
          <rect id="Rectángulo_943" data-name="Rectángulo 943" width="1.456" height="15.435" transform="translate(802.795 256.074) rotate(-45)" fill="#e2e2e2"/>
          <path id="Trazado_1341" data-name="Trazado 1341" d="M872.548,103.907A13.153,13.153,0,0,1,885.7,117.059v29.077H859.4V117.059a13.153,13.153,0,0,1,13.152-13.152" transform="translate(-63.507 -7.651)" fill="#828282"/>
          <path id="Trazado_1342" data-name="Trazado 1342" d="M872.931,109.5a8.377,8.377,0,1,1-1.634.161,8.353,8.353,0,0,1,1.634-.161" transform="translate(-63.888 -8.065)" fill="#363232"/>
          <path id="Trazado_1343" data-name="Trazado 1343" d="M873.052,112.27a5.731,5.731,0,1,0,5.73,5.73,5.738,5.738,0,0,0-5.73-5.73m0,12.608A6.877,6.877,0,1,1,879.928,118a6.885,6.885,0,0,1-6.877,6.878" transform="translate(-64.008 -8.185)" fill="#e2e2e2"/>
          <rect id="Rectángulo_944" data-name="Rectángulo 944" width="1.147" height="12.16" transform="translate(804.114 105.922) rotate(-45)" fill="#e2e2e2"/>
          <rect id="Rectángulo_945" data-name="Rectángulo 945" width="11.855" height="1.531" transform="translate(842.123 264.039)" fill="#363232"/>
          <rect id="Rectángulo_946" data-name="Rectángulo 946" width="11.855" height="1.531" transform="translate(842.123 266.986)" fill="#363232"/>
          <rect id="Rectángulo_947" data-name="Rectángulo 947" width="11.855" height="1.531" transform="translate(842.123 269.931)" fill="#363232"/>
          <rect id="Rectángulo_948" data-name="Rectángulo 948" width="26.543" height="5.092" transform="translate(847.415 251.196)" fill="#e2e2e2"/>
          <rect id="Rectángulo_949" data-name="Rectángulo 949" width="29.864" height="2.435" transform="translate(794.114 136.051)" fill="#363232"/>
          <path id="Trazado_1344" data-name="Trazado 1344" d="M931.908,368.664v-4.821c14.151,0,24.42-9.838,24.42-23.393V334.3c0-13.1-12.025-23.764-26.8-23.764h-17.86c-22.568,0-40.93-16.562-40.93-36.92l-.033-28.693,4.82-.006.034,28.7c0,17.7,16.2,32.1,36.109,32.1h17.86c17.439,0,31.626,12.824,31.626,28.585v6.145c0,16.348-12.3,28.214-29.241,28.214" transform="translate(-64.343 -18.082)" fill="#7d3135"/>
          <path id="Trazado_1345" data-name="Trazado 1345" d="M932.568,358.645v-4.821a23.791,23.791,0,0,0,23.764-23.764v-6.146a23.79,23.79,0,0,0-23.764-23.764h-16a36.963,36.963,0,0,1-36.922-36.921V246.061h4.821v17.168a32.138,32.138,0,0,0,32.1,32.1h16a28.615,28.615,0,0,1,28.584,28.584v6.146a28.617,28.617,0,0,1-28.584,28.585" transform="translate(-65.005 -18.166)" fill="#993c40"/>
          <rect id="Rectángulo_950" data-name="Rectángulo 950" width="20.117" height="26.049" transform="translate(802.676 207.693)" fill="#666"/>
          <rect id="Rectángulo_951" data-name="Rectángulo 951" width="14.027" height="26.049" transform="translate(808.767 207.693)" fill="#e2e2e2"/>
          <path id="Trazado_1346" data-name="Trazado 1346" d="M802.83,332.58V431.2H734.018V360.464L758.9,332.58Z" transform="translate(-54.233 -24.565)" fill="#d3d3d3"/>
          <path id="Trazado_1347" data-name="Trazado 1347" d="M832.97,332.58V431.2H764.158V360.8l25.181-28.221Z" transform="translate(-56.462 -24.565)" fill="#828282"/>
          <path id="Trazado_1348" data-name="Trazado 1348" d="M744.7,357.122l-4.446,4.911H735.9l4.445-4.911Z" transform="translate(-54.372 -26.381)" fill="#565656"/>
          <path id="Trazado_1349" data-name="Trazado 1349" d="M751.551,357.122l-4.446,4.911h-4.35l4.446-4.911Z" transform="translate(-54.879 -26.381)" fill="#565656"/>
          <path id="Trazado_1350" data-name="Trazado 1350" d="M758.4,357.122l-4.446,4.911h-4.35l4.446-4.911Z" transform="translate(-55.386 -26.381)" fill="#565656"/>
          <path id="Trazado_1351" data-name="Trazado 1351" d="M765.257,357.122l-4.446,4.911h-4.35l4.446-4.911Z" transform="translate(-55.893 -26.381)" fill="#565656"/>
          <path id="Trazado_1352" data-name="Trazado 1352" d="M751.671,349.42l-4.446,4.911h-4.35l4.446-4.911Z" transform="translate(-54.888 -25.811)" fill="#565656"/>
          <path id="Trazado_1353" data-name="Trazado 1353" d="M758.524,349.42l-4.446,4.911h-4.35l4.446-4.911Z" transform="translate(-55.395 -25.811)" fill="#565656"/>
          <path id="Trazado_1354" data-name="Trazado 1354" d="M765.377,349.42l-4.446,4.911h-4.349l4.445-4.911Z" transform="translate(-55.902 -25.811)" fill="#565656"/>
          <path id="Trazado_1355" data-name="Trazado 1355" d="M772.23,349.42l-4.446,4.911h-4.35l4.446-4.911Z" transform="translate(-56.409 -25.811)" fill="#565656"/>
          <path id="Trazado_1356" data-name="Trazado 1356" d="M772.349,341.718l-4.446,4.911h-4.35L768,341.718Z" transform="translate(-56.418 -25.241)" fill="#565656"/>
          <path id="Trazado_1357" data-name="Trazado 1357" d="M779.2,341.718l-4.446,4.911h-4.349l4.445-4.911Z" transform="translate(-56.925 -25.241)" fill="#565656"/>
          <path id="Trazado_1358" data-name="Trazado 1358" d="M771.6,334.016l-11.109,12.272H749.625l11.11-12.272Z" transform="translate(-55.387 -24.672)" fill="#565656"/>
          <path id="Trazado_1359" data-name="Trazado 1359" d="M779.322,334.016l-4.446,4.911h-4.35l4.446-4.911Z" transform="translate(-56.933 -24.672)" fill="#565656"/>
          <path id="Trazado_1360" data-name="Trazado 1360" d="M786.173,334.016l-4.446,4.911h-4.35l4.446-4.911Z" transform="translate(-57.44 -24.672)" fill="#565656"/>
          <rect id="Rectángulo_952" data-name="Rectángulo 952" width="20.761" height="24.291" transform="translate(682.808 346.749)" fill="#828282"/>
          <rect id="Rectángulo_953" data-name="Rectángulo 953" width="13.43" height="1.17" transform="translate(685.189 351.659)" fill="#fff"/>
          <rect id="Rectángulo_954" data-name="Rectángulo 954" width="13.43" height="1.17" transform="translate(685.189 355.284)" fill="#fff"/>
          <rect id="Rectángulo_955" data-name="Rectángulo 955" width="13.43" height="1.17" transform="translate(685.189 358.908)" fill="#fff"/>
          <rect id="Rectángulo_956" data-name="Rectángulo 956" width="44.471" height="90.16" transform="translate(741.87 316.477)" fill="#d3d3d3"/>
          <rect id="Rectángulo_957" data-name="Rectángulo 957" width="27.012" height="90.16" transform="translate(759.328 316.477)" fill="#828282"/>
          <rect id="Rectángulo_958" data-name="Rectángulo 958" width="10.429" height="3.1" transform="translate(745.499 324.072)" fill="#fff"/>
          <rect id="Rectángulo_959" data-name="Rectángulo 959" width="10.429" height="3.1" transform="translate(745.499 329.535)" fill="#fff"/>
          <rect id="Rectángulo_960" data-name="Rectángulo 960" width="10.429" height="3.1" transform="translate(745.499 334.997)" fill="#fff"/>
          <rect id="Rectángulo_961" data-name="Rectángulo 961" width="94.605" height="123.562" transform="translate(138.384 291.803)" fill="#d3d3d3"/>
          <path id="Trazado_1361" data-name="Trazado 1361" d="M177.866,394.558H219.7l-20.916-35.652Z" transform="translate(-13.097 -26.513)" fill="#828282"/>
          <path id="Trazado_1362" data-name="Trazado 1362" d="M180.375,392.75h36.381l-18.19-31.005Zm41.834,3.123H174.923l23.644-40.3Z" transform="translate(-12.879 -26.266)" fill="#544844"/>
          <rect id="Rectángulo_962" data-name="Rectángulo 962" width="216.552" height="9.106" transform="translate(30.049 415.267)" fill="#606060"/>
          <rect id="Rectángulo_963" data-name="Rectángulo 963" width="124.242" height="9.106" transform="translate(671.952 406.399)" fill="#363232"/>
          <rect id="Rectángulo_964" data-name="Rectángulo 964" width="94.605" height="23.538" transform="translate(138.384 283.257)" fill="#828282"/>
          <rect id="Rectángulo_965" data-name="Rectángulo 965" width="5.736" height="15.12" transform="translate(149.583 288.255)" fill="#363232"/>
          <rect id="Rectángulo_966" data-name="Rectángulo 966" width="5.736" height="15.12" transform="translate(159.131 288.255)" fill="#363232"/>
          <rect id="Rectángulo_967" data-name="Rectángulo 967" width="5.736" height="15.12" transform="translate(168.677 288.255)" fill="#363232"/>
          <rect id="Rectángulo_968" data-name="Rectángulo 968" width="5.736" height="15.12" transform="translate(178.224 288.255)" fill="#363232"/>
          <rect id="Rectángulo_969" data-name="Rectángulo 969" width="5.736" height="5.736" transform="translate(187.773 288.255)" fill="#fff"/>
          <rect id="Rectángulo_970" data-name="Rectángulo 970" width="5.736" height="5.736" transform="translate(187.773 297.639)" fill="#fff"/>
          <rect id="Rectángulo_971" data-name="Rectángulo 971" width="5.736" height="5.736" transform="translate(197.659 288.255)" fill="#fff"/>
          <rect id="Rectángulo_972" data-name="Rectángulo 972" width="5.736" height="5.736" transform="translate(197.659 297.639)" fill="#fff"/>
          <rect id="Rectángulo_973" data-name="Rectángulo 973" width="5.736" height="5.736" transform="translate(207.546 288.255)" fill="#fff"/>
          <rect id="Rectángulo_974" data-name="Rectángulo 974" width="5.736" height="5.736" transform="translate(207.546 297.639)" fill="#fff"/>
          <rect id="Rectángulo_975" data-name="Rectángulo 975" width="5.736" height="5.736" transform="translate(217.433 288.255)" fill="#fff"/>
          <rect id="Rectángulo_976" data-name="Rectángulo 976" width="5.736" height="5.736" transform="translate(217.433 297.639)" fill="#fff"/>
          <rect id="Rectángulo_977" data-name="Rectángulo 977" width="60.372" height="56.23" transform="translate(155.5 227.027)" fill="#a38f83"/>
          <rect id="Rectángulo_978" data-name="Rectángulo 978" width="60.372" height="4.193" transform="translate(155.5 279.064)" fill="#675954"/>
          <rect id="Rectángulo_979" data-name="Rectángulo 979" width="17.18" height="52.074" transform="translate(170.237 227.027)" fill="#968279"/>
          <rect id="Rectángulo_980" data-name="Rectángulo 980" width="1.857" height="52.074" transform="translate(191.22 227.027)" fill="#968279"/>
          <rect id="Rectángulo_981" data-name="Rectángulo 981" width="1.857" height="52.074" transform="translate(195.896 227.027)" fill="#968279"/>
          <rect id="Rectángulo_982" data-name="Rectángulo 982" width="1.857" height="52.074" transform="translate(200.569 227.027)" fill="#968279"/>
          <rect id="Rectángulo_983" data-name="Rectángulo 983" width="10.078" height="1.385" transform="translate(173.178 249.432)" fill="#675954"/>
          <rect id="Rectángulo_984" data-name="Rectángulo 984" width="10.078" height="1.385" transform="translate(173.178 253.062)" fill="#675954"/>
          <rect id="Rectángulo_985" data-name="Rectángulo 985" width="10.078" height="1.385" transform="translate(173.178 256.692)" fill="#675954"/>
          <rect id="Rectángulo_986" data-name="Rectángulo 986" width="10.078" height="1.385" transform="translate(173.178 260.322)" fill="#675954"/>
          <rect id="Rectángulo_987" data-name="Rectángulo 987" width="10.078" height="1.385" transform="translate(173.178 263.953)" fill="#675954"/>
          <rect id="Rectángulo_988" data-name="Rectángulo 988" width="93.02" height="65.676" transform="translate(139.968 168.45)" fill="#d3d3d3"/>
          <rect id="Rectángulo_989" data-name="Rectángulo 989" width="71.782" height="47.093" transform="translate(149.794 177.122)" fill="#77838b"/>
          <rect id="Rectángulo_990" data-name="Rectángulo 990" width="1.743" height="3.339" transform="translate(145.573 227.632)" fill="#3883aa"/>
          <rect id="Rectángulo_991" data-name="Rectángulo 991" width="1.743" height="3.339" transform="translate(148.731 227.632)" fill="#3883aa"/>
          <rect id="Rectángulo_992" data-name="Rectángulo 992" width="1.743" height="3.339" transform="translate(151.887 227.632)" fill="#3883aa"/>
          <rect id="Rectángulo_993" data-name="Rectángulo 993" width="1.743" height="3.339" transform="translate(155.045 227.632)" fill="#3883aa"/>
          <rect id="Rectángulo_994" data-name="Rectángulo 994" width="71.809" height="29.468" transform="translate(149.794 186.626)" fill="#9dadb8"/>
          <rect id="Rectángulo_995" data-name="Rectángulo 995" width="21.015" height="23.827" transform="translate(155.045 189.376)" fill="#77838b"/>
          <rect id="Rectángulo_996" data-name="Rectángulo 996" width="38.823" height="10.586" transform="translate(178.827 189.376)" fill="#77838b"/>
          <rect id="Rectángulo_997" data-name="Rectángulo 997" width="38.823" height="10.586" transform="translate(178.827 202.616)" fill="#77838b"/>
          <g id="Grupo_1093" data-name="Grupo 1093" transform="translate(155.483 234.044)" opacity="0.212">
            <g id="Grupo_1092" data-name="Grupo 1092">
              <g id="Grupo_1091" data-name="Grupo 1091" clip-path="url(#clip-path-16)">
                <g id="Grupo_1090" data-name="Grupo 1090" transform="translate(0 0)">
                  <g id="Grupo_1089" data-name="Grupo 1089" clip-path="url(#clip-path-16)">
                    <rect id="Rectángulo_998" data-name="Rectángulo 998" width="60.389" height="10.329" transform="translate(0 0)" fill="#231f20"/>
                  </g>
                </g>
              </g>
            </g>
          </g>
          <rect id="Rectángulo_1001" data-name="Rectángulo 1001" width="18.178" height="421.122" transform="translate(398.93 0.034)" fill="#828282"/>
          <rect id="Rectángulo_1002" data-name="Rectángulo 1002" width="28.536" height="6.433" transform="translate(393.751 417.94)" fill="#4a4046"/>
          <rect id="Rectángulo_1003" data-name="Rectángulo 1003" width="180.967" height="18.509" transform="translate(417.108 0.034)" fill="#4a4046"/>
          <path id="Trazado_1363" data-name="Trazado 1363" d="M450.361,61.054l41.068-41.068H450.361Z" transform="translate(-33.252 -1.444)" fill="#4a4046"/>
          <path id="Trazado_1364" data-name="Trazado 1364" d="M642.5,61.054V19.987H601.434Z" transform="translate(-44.426 -1.444)" fill="#4a4046"/>
          <g id="Grupo_1098" data-name="Grupo 1098" transform="translate(398.93 350.895)" opacity="0.2">
            <g id="Grupo_1097" data-name="Grupo 1097">
              <g id="Grupo_1096" data-name="Grupo 1096" clip-path="url(#clip-path-18)">
                <g id="Grupo_1095" data-name="Grupo 1095" transform="translate(0 0.001)">
                  <g id="Grupo_1094" data-name="Grupo 1094" clip-path="url(#clip-path-19)">
                    <rect id="Rectángulo_1004" data-name="Rectángulo 1004" width="18.178" height="67.045" transform="translate(0 -0.001)" fill="#2e282b"/>
                  </g>
                </g>
              </g>
            </g>
          </g>
          <path id="Trazado_1365" data-name="Trazado 1365" d="M440.289,10.171A3.208,3.208,0,1,0,443.5,13.38a3.209,3.209,0,0,0-3.208-3.209" transform="translate(-32.27 -0.718)" fill="#4a4046"/>
          <path id="Trazado_1366" data-name="Trazado 1366" d="M440.289,43.947a3.208,3.208,0,1,0,3.208,3.209,3.208,3.208,0,0,0-3.208-3.209" transform="translate(-32.27 -3.216)" fill="#4a4046"/>
          <path id="Trazado_1367" data-name="Trazado 1367" d="M440.289,222.23a3.208,3.208,0,1,0,3.208,3.209,3.208,3.208,0,0,0-3.208-3.209" transform="translate(-32.27 -16.403)" fill="#4a4046"/>
          <path id="Trazado_1368" data-name="Trazado 1368" d="M440.289,240.321a3.207,3.207,0,1,0,3.208,3.208,3.208,3.208,0,0,0-3.208-3.208" transform="translate(-32.27 -17.741)" fill="#4a4046"/>
        </g>
      </g>
    </g>
  </g>
</svg>
