<svg xmlns="http://www.w3.org/2000/svg" width="13.8" height="19.118" viewBox="0 0 13.8 19.118">
  <g id="Phone_Icon" data-name="Phone Icon" transform="translate(-12 -3)">
    <path id="Trazado_2" data-name="Trazado 2" d="M31.189,21.335,29.3,18.062a1.1,1.1,0,0,0-1.519-.331l-1.674.966a11.7,11.7,0,0,1-4.319-7.481l1.674-.967a1.1,1.1,0,0,0,.473-1.481L22.044,5.5a1.1,1.1,0,0,0-1.519-.331l-1.749,1.01c-2.888,1.667-.09,8.691,1.265,11.037s6.038,8.281,8.926,6.614l1.749-1.01A1.1,1.1,0,0,0,31.189,21.335Z" transform="translate(-5.517 -1.999)" fill="#fff"/>
  </g>
</svg>
