<svg xmlns="http://www.w3.org/2000/svg" xmlns:xlink="http://www.w3.org/1999/xlink" width="25.461" height="25.267" viewBox="0 0 25.461 25.267">
  <defs>
    <clipPath id="clip-path">
      <rect id="Rectángulo_772" data-name="Rectángulo 772" width="25.461" height="25.267" fill="#fff"/>
    </clipPath>
  </defs>
  <g id="Service_icon" data-name="Service icon" transform="translate(0 0)">
    <g id="Grupo_1041" data-name="Grupo 1041" transform="translate(0 0)" clip-path="url(#clip-path)">
      <path id="Trazado_1220" data-name="Trazado 1220" d="M3.5,18.485.629,21.357H.68a2.249,2.249,0,0,0,0,3.222A2.292,2.292,0,0,0,3.9,24.63h.051L7.932,20.7l3.073-3.172h.1l6.295-6.3h6.347l1.713-6.5-.705-.654L21.331,7.5,17.956,4.132,21.432.706,20.726,0l-6.5,1.763V7.909l-.051-.05L6.22,15.817ZM3,23.775H3a1.085,1.085,0,0,1-1.46-.051.972.972,0,0,1,0-1.41A1.033,1.033,0,0,1,3,23.775" transform="translate(0 0)" fill="#fff"/>
    </g>
  </g>
</svg>
